<?xml version="1.0" encoding="UTF-8" standalone="no"?>
<!-- Created with Inkscape (http://www.inkscape.org/) -->

<svg
   version="1.1"
   id="svg1"
   width="512"
   height="512"
   viewBox="0 0 512 512"
   sodipodi:docname="coin_inverted.svg"
   xml:space="preserve"
   inkscape:version="1.3.1 (6036e22fae, 2023-11-19, custom)"
   xmlns:inkscape="http://www.inkscape.org/namespaces/inkscape"
   xmlns:sodipodi="http://sodipodi.sourceforge.net/DTD/sodipodi-0.dtd"
   xmlns="http://www.w3.org/2000/svg"
   xmlns:svg="http://www.w3.org/2000/svg"><defs
   id="defs1" /><sodipodi:namedview
   id="namedview1"
   pagecolor="#ffffff"
   bordercolor="#000000"
   borderopacity="0.25"
   inkscape:showpageshadow="2"
   inkscape:pageopacity="0.0"
   inkscape:pagecheckerboard="0"
   inkscape:deskcolor="#d1d1d1"
   inkscape:zoom="1.59375"
   inkscape:cx="247.52941"
   inkscape:cy="247.84314"
   inkscape:window-width="1920"
   inkscape:window-height="1016"
   inkscape:window-x="0"
   inkscape:window-y="0"
   inkscape:window-maximized="1"
   inkscape:current-layer="svg1"><inkscape:page
     x="0"
     y="0"
     width="512"
     height="512"
     id="page4"
     margin="0"
     bleed="0"
     inkscape:export-filename="coin.png"
     inkscape:export-xdpi="96"
     inkscape:export-ydpi="96" /></sodipodi:namedview><path
   style="fill:#d49000;fill-opacity:1"
   d="M 240,511.3668 C 186.30885,507.36332 137.70835,488.50719 95.852504,455.44011 86.337414,447.92297 64.034956,425.60689 56.436479,416 31.942506,385.03184 14.424799,348.30255 6.0656349,310.3877 c -7.3927197,-33.53133 -7.3927197,-75.24407 0,-108.7754 C 14.424395,163.69928 31.933584,126.98654 56.434684,96 64.60203,85.670758 87.721148,62.779363 98,54.844101 109.68666,45.822016 124.49652,36.251963 137,29.642516 210.55328,-9.2383858 300.2802,-9.4346207 374,29.124192 448.06526,67.863696 498.18514,139.50907 509.62732,223.00074 c 2.32218,16.94462 2.32218,49.0539 0,65.99852 -7.80671,56.96426 -32.13225,106.40721 -72.11545,146.57853 C 429.80534,443.32057 420.125,452.31958 416,455.57558 378.90334,484.8572 335.18473,503.49031 289.53902,509.47394 277.48316,511.05432 249.92901,512.10715 240,511.3668 Z"
   id="path1" /><path
   style="display:inline;fill:#ffc843;fill-opacity:1;stroke-width:0.823564"
   d="M 242.29218,465.96368 C 198.07411,462.66656 158.0485,447.13734 123.57755,419.9045 115.74127,413.71365 97.373778,395.33494 91.115949,387.42306 70.943604,361.91881 56.516658,331.6699 49.632354,300.44461 c -6.088375,-27.61518 -6.088375,-61.96828 0,-89.58346 6.883971,-31.22379 21.303902,-61.45906 41.482117,-86.97845 6.726329,-8.50679 25.766389,-27.359312 34.231679,-33.894505 9.62471,-7.430261 21.82157,-15.311809 32.11898,-20.755109 60.57581,-32.020896 134.47163,-32.182508 195.18458,-0.426873 60.99745,31.904447 102.27436,90.908977 111.69772,159.669677 1.91247,13.95497 1.91247,40.39901 0,54.35398 -6.42932,46.91369 -26.46295,87.6331 -59.39166,120.71674 -6.34681,6.37667 -14.31919,13.78793 -17.71639,16.46945 -30.55146,24.11528 -66.55652,39.46083 -104.14866,44.38873 -9.92877,1.30155 -32.62137,2.16862 -40.79854,1.55889 z"
   id="path1-5" /><path
   d="m 339.21129,195.31193 c 42.3991,-25.35462 81.02504,-41.01087 85.37165,-33.58156 -16.84723,15.76693 -48.19075,37.17064 -73.77133,53.34183 l -0.0228,0.0144 -0.0799,0.0499 -0.66519,0.41918 -0.25231,0.16113 -0.10325,0.0642 -0.13756,0.0872 -0.37847,0.23854 -0.43009,0.27065 -0.14906,0.0917 -0.0865,0.0545 -0.20648,0.13017 -0.75684,0.47479 -0.0399,0.0258 c -0.34405,0.21618 -0.6881,0.43122 -1.03216,0.64625 l -0.0342,0.0229 -0.12036,0.0751 -0.59066,0.36814 -0.2466,0.15253 -0.11466,0.0705 -0.14336,0.0906 -0.34405,0.21445 -0.41859,0.26092 -0.14906,0.0929 -0.0856,0.0522 c -9.30671,5.78415 -17.52393,10.66975 -23.51047,14.05239 -17.48951,9.87152 -34.54323,17.11734 -51.23569,22.16406 -1.22134,0.36355 -2.14455,1.29653 -2.52882,2.45255 0.0684,0.5677 0.10325,1.1457 0.10325,1.73175 0,5.93094 -3.75596,10.99086 -9.01428,12.92961 -0.6766,0.85957 -0.96333,1.99552 -0.72822,3.11944 5.55655,26.56741 8.43512,55.33506 9.22647,81.44029 0.0285,0.85498 0.0513,1.70708 0.0741,2.55576 v 0.0223 0.0264 c 0.0228,0.83376 0.0399,1.66408 0.057,2.4967 v 0.0356 0.0435 c 0.0171,0.82631 0.0342,1.6486 0.0456,2.46401 v 0.0316 0.0401 c 0.0114,0.83032 0.0228,1.6572 0.0285,2.47778 0.43009,42.98402 -4.93718,76.41937 -13.18881,76.46524 -5.00031,-21.47137 -8.1541,-51.52292 -9.67937,-77.20382 l -0.0114,-0.13533 -0.0114,-0.18235 -0.0171,-0.37387 -0.0342,-0.56196 -0.0114,-0.18177 -0.009,-0.0722 c -0.0171,-0.38133 -0.0399,-0.76209 -0.0628,-1.14113 l -0.01,-0.0791 -0.01,-0.1835 -0.0285,-0.52985 -0.0228,-0.39451 -0.0114,-0.17662 -0.01,-0.11985 c -0.0228,-0.38534 -0.0399,-0.77011 -0.0627,-1.15488 l -0.0399,-0.8653 -0.0171,-0.29646 -0.01,-0.10551 -0.01,-0.1164 c -0.55625,-11.14856 -0.78555,-21.18983 -0.71672,-28.94026 0.19489,-20.09171 2.45418,-38.49582 6.43384,-55.48529 0.2351,-0.98515 0.0627,-1.99036 -0.42439,-2.81954 -5.40739,-1.86019 -9.2952,-6.99408 -9.2952,-13.02881 0,-1.07346 0.12036,-2.11824 0.35546,-3.12116 -0.4587,-0.77986 -1.19273,-1.39228 -2.09873,-1.68817 -73.23219,-24.11086 -159.125765,-81.114 -152.319165,-93.06191 22.128455,6.71997 55.433135,22.61306 81.609985,36.31393 l 0.057,0.0299 0.0856,0.0435 0.47021,0.24543 0.51033,0.26779 0.0808,0.0424 0.0456,0.0252 c 0.73402,0.38591 1.46224,0.76954 2.18476,1.15144 l 0.0228,0.0121 0.0627,0.0327 0.62508,0.33086 0.32684,0.17318 0.0975,0.0522 0.10894,0.0556 0.33835,0.17949 0.53904,0.28842 0.12035,0.0625 0.0513,0.027 c 0.34405,0.18522 0.6939,0.37044 1.03796,0.55508 9.35252,4.9911 17.4608,9.52748 23.33839,12.99728 17.29453,10.20756 32.09466,21.35439 44.81326,33.28796 0.71682,0.67837 1.64573,1.03332 2.58044,1.04307 2.37975,-1.94965 5.41889,-3.12059 8.72755,-3.12059 3.47493,0 6.64603,1.28734 9.0716,3.41017 1.14681,0.22134 2.36254,-0.0906 3.27424,-0.90831 19.64557,-17.5457 43.59192,-34.5885 66.9017,-48.95856 l 0.0856,-0.0533 0.0865,-0.0522 0.30393,-0.18636 0.66519,-0.41 0.0342,-0.0212 0.0114,-0.007 c 0.34405,-0.21045 0.6824,-0.41974 1.02645,-0.6279 l 0.0513,-0.0316 0.12046,-0.0722 0.48732,-0.29646 0.34414,-0.21274 0.13757,-0.0802 0.0975,-0.0602 c 0.66509,-0.40254 1.32458,-0.80279 1.98398,-1.19903 l 0.0865,-0.0528 0.14336,-0.0866 0.38997,-0.23281 0.41279,-0.246 0.13766,-0.0843 z m -187.41294,25.98309 c 2.93019,1.64287 5.9063,3.27943 8.92824,4.90451 -3.76737,10.4335 -5.82597,21.67953 -5.82597,33.40208 0,49.27911 36.31501,90.14376 83.61697,97.27488 0.14907,3.3339 0.33265,6.78134 0.54474,10.30849 -5.23531,-0.69271 -10.4421,-1.77017 -15.56276,-3.23241 0,0 -1.72606,4.61666 -3.36028,8.97298 -5.17229,13.80122 -4.80532,29.06869 1.01495,42.60729 0,5.7e-4 0.01,9.5e-4 0.01,0.002 -0.49321,-0.10208 -1.1469,-0.26092 -1.92104,-0.4662 -7.07602,-1.5838 -13.1314,-6.11903 -16.64084,-12.46112 -3.50935,-6.34153 -4.13433,-13.88208 -1.72026,-20.71618 4.12292,-11.72198 8.1771,-23.19738 8.1771,-23.19738 -18.48725,-8.25619 -34.29662,-21.52183 -45.63902,-38.29626 0,0 -4.29499,2.42443 -8.34338,4.71183 -12.83326,7.24811 -22.36936,19.17767 -26.60693,33.29428 0,5.8e-4 0,9.5e-4 0,0.002 -0.31544,-0.39452 -0.71111,-0.93526 -1.17552,-1.59125 -4.39824,-5.7595 -6.1242,-13.12688 -4.73649,-20.24138 1.38761,-7.11393 5.75714,-13.29374 11.99599,-16.97743 10.70022,-6.32719 21.17664,-12.51217 21.17664,-12.51217 -8.8537,-18.20915 -12.43759,-38.53309 -10.34456,-58.67296 0,0 -4.84544,-0.90201 -9.42136,-1.75354 -14.49049,-2.6974 -29.46269,0.31309 -41.779916,8.40127 -0.0095,5.7e-4 -0.0095,5.7e-4 -0.0095,9.5e-4 0.01711,-0.50289 0.05704,-1.17207 0.126156,-1.97201 0.332644,-7.24008 3.744452,-13.99275 9.38124,-18.55034 5.63678,-4.55759 12.95371,-6.48488 20.10436,-5.29444 12.25981,2.0282 24.2674,4.02717 24.2674,4.02717 1.02065,-4.07362 2.27071,-8.07155 3.74445,-11.97486 z m -16.85874,176.46561 c 2.76963,2.37284 5.61388,4.66196 8.52686,6.86335 13.46404,-15.25429 26.21127,-31.08602 38.24177,-47.49518 -2.9474,-2.15838 -5.79156,-4.44807 -8.52686,-6.86334 -13.46404,15.25428 -26.21126,31.08601 -38.24177,47.49517 z M 353.83935,218.88262 c 1.88653,4.6654 3.45772,9.4707 4.69066,14.38726 0,0 4.86265,-0.80967 9.45007,-1.57405 14.54202,-2.42101 27.58177,-10.37099 36.38955,-22.18587 0,0 0.01,-5.7e-4 0.01,-9.5e-4 0.15477,0.47709 0.34405,1.12106 0.55624,1.89575 2.16176,6.91724 1.26146,14.43027 -2.47149,20.64048 -3.73874,6.21078 -9.95469,10.52409 -17.08243,11.851 -12.21398,2.2874 -24.17556,4.51459 -24.17556,4.51459 2.09293,20.13987 -1.49096,40.46381 -10.35036,58.67296 0,0 4.24907,2.50531 8.25154,4.87012 12.69569,7.49066 27.79396,9.78207 42.14108,6.39542 0,5.7e-4 0,0 0,0 -0.18348,0.46734 -0.453,1.08148 -0.79125,1.80973 -2.78693,6.69074 -8.30896,11.8682 -15.16139,14.22327 -6.85252,2.35563 -14.38734,1.66351 -20.70072,-1.90034 -10.82628,-6.09896 -21.42325,-12.08381 -21.42325,-12.08381 -11.3423,16.77444 -27.15168,30.04008 -45.63893,38.29627 0,0 1.64002,4.64819 3.18821,9.03491 4.90856,13.89756 15.00082,25.35862 28.16672,31.98456 0.01,9.5e-4 0.01,9.5e-4 0.01,0.002 -0.4415,0.23855 -1.04357,0.53559 -1.77189,0.87677 -6.43383,3.33333 -13.99157,3.7525 -20.75795,1.1503 -6.76078,-2.60164 -12.09363,-7.97522 -14.63386,-14.76229 -4.37523,-11.63137 -8.64731,-23.02765 -8.64731,-23.02765 -3.80757,1.08722 -7.66098,1.96227 -11.53729,2.624 -0.0399,-3.36429 -0.10895,-6.78478 -0.21789,-10.25229 45.69055,-8.48384 80.33122,-48.58927 80.33122,-96.72267 0,-12.42844 -2.31091,-24.3213 -6.51987,-35.26915 2.80413,-1.73576 5.71712,-3.55811 8.70464,-5.44984 z m 14.88046,181.18204 c 2.81544,-2.31779 5.56215,-4.71929 8.24013,-7.20223 -12.68999,-15.90914 -26.06799,-31.21216 -40.1341,-45.90965 -2.63776,2.52422 -5.39027,4.92745 -8.24023,7.2028 12.6842,15.90914 26.06229,31.21217 40.1342,45.90908 z M 178.92711,235.57162 c 2.51741,1.24031 5.05763,2.46573 7.60936,3.67279 0.48171,1.06256 1.01504,2.13888 1.5942,3.22724 2.21338,4.14358 5.13216,8.407 8.67013,12.68763 2.43137,-2.59762 5.06343,-5.18721 7.89037,-7.74699 2.00699,0.85441 4.01398,1.69276 6.02096,2.51448 -3.65841,3.18308 -7.01299,6.42351 -10.01772,9.67484 4.20896,4.55128 9.09451,9.07963 14.54782,13.46176 -0.32114,-4.38041 -0.48742,-8.87836 -0.48742,-13.46176 0,-2.68994 0.057,-5.35064 0.17208,-7.97578 1.93815,0.77126 3.87631,1.52531 5.81446,2.26101 -0.057,1.88773 -0.0856,3.7938 -0.0856,5.71477 0,6.29278 0.32105,12.41927 0.92891,18.29746 4.78812,3.46808 9.93178,6.81001 15.37929,9.9564 1.46224,0.84122 2.91878,1.65662 4.37523,2.44623 -0.33255,2.04369 -0.64219,4.10631 -0.92891,6.18727 -2.13315,-1.12104 -4.26629,-2.29657 -6.39372,-3.52599 -3.96815,-2.29141 -7.78143,-4.68547 -11.41114,-7.15407 1.06657,6.91781 2.54593,13.4113 4.38094,19.33364 4.12862,-0.93698 8.4064,-2.15035 12.78163,-3.6338 -0.24651,2.11537 -0.4702,4.25023 -0.67089,6.40632 -3.47494,1.10556 -6.88684,2.04598 -10.21271,2.81953 1.93816,5.20557 4.17454,9.86236 6.65744,13.84997 0.79135,1.27759 1.61141,2.4858 2.44287,3.61545 -0.0171,0.8911 -0.0285,1.78794 -0.0399,2.68822 -0.0171,1.91754 -0.0171,3.97327 0.01,6.14655 -5.86048,-5.58058 -10.96964,-14.26397 -14.88616,-25.10116 -20.43691,3.64986 -36.75091,0.46391 -42.8694,-10.13588 -6.12411,-10.60035 -0.72243,-26.31911 12.65557,-42.19614 -6.98437,-8.28773 -11.7954,-16.53245 -13.92283,-24.02999 z m 148.93028,-0.83377 c -2.00128,7.71545 -6.90404,16.26638 -14.15214,24.86376 13.3838,15.87703 18.77968,31.59579 12.66128,42.19614 -6.1242,10.59979 -22.43249,13.78574 -42.87511,10.13588 -3.54376,9.81018 -8.06815,17.85536 -13.23463,23.43193 -0.20649,-2.84478 -0.43009,-5.70388 -0.6824,-8.57331 0.48741,-0.71047 0.96903,-1.44674 1.43923,-2.20768 2.483,-3.98761 4.71938,-8.6444 6.65754,-13.84997 -3.29146,-0.76494 -6.66894,-1.69447 -10.10956,-2.7857 -0.26952,-2.15838 -0.55615,-4.31561 -0.86008,-6.4694 4.40394,1.49607 8.71034,2.71976 12.86767,3.66305 1.83492,-5.92292 3.32017,-12.4164 4.38674,-19.33364 -3.6356,2.4686 -7.44888,4.86266 -11.41694,7.15407 -2.18476,1.26096 -4.36952,2.46515 -6.55429,3.61201 -0.31534,-2.05918 -0.64218,-4.11204 -0.98053,-6.15803 1.53107,-0.82573 3.05635,-1.67956 4.58742,-2.56149 5.44751,-3.14639 10.59688,-6.48832 15.37929,-9.9564 0.61357,-5.87819 0.92891,-12.00468 0.92891,-18.29746 0,-1.55112 -0.0171,-3.09191 -0.057,-4.62181 1.93815,-0.72941 3.88211,-1.48862 5.83177,-2.27823 0.0856,2.27536 0.12615,4.57709 0.12615,6.90004 0,4.5834 -0.16627,9.08135 -0.48741,13.46176 5.45901,-4.3827 10.33886,-8.91105 14.55352,-13.46176 -2.79254,-3.01392 -5.87189,-6.01753 -9.22637,-8.97583 1.95536,-0.84065 3.91643,-1.71283 5.87759,-2.61655 2.58044,2.36481 4.9945,4.7537 7.23659,7.15005 3.54377,-4.28063 6.45685,-8.54405 8.67023,-12.68763 0.59636,-1.11646 1.1411,-2.22031 1.63431,-3.31039 1.00915,-0.55393 2.0184,-1.11646 3.03335,-1.68759 1.46224,-0.82574 3.05644,-1.74092 4.7652,-2.73582 z m -18.10308,29.30609 c 3.54376,4.28063 6.45684,8.54405 8.67022,12.68764 4.5301,8.48212 6.22165,16.24745 2.83275,22.11704 -3.38899,5.86959 -10.96394,8.28659 -20.56877,8.60599 -4.69637,0.15597 -9.84574,-0.23741 -15.32196,-1.16234 2.31092,-7.61739 4.077,-16.10067 5.16658,-25.18029 7.32263,-5.4854 13.78518,-11.25636 19.22118,-17.06804 z m -112.95351,0 c 5.43609,5.8134 11.90435,11.58379 19.22127,17.06804 1.08948,9.08193 2.85566,17.56691 5.17228,25.18029 -5.47621,0.92493 -10.63129,1.31831 -15.32186,1.16234 -9.61063,-0.3194 -17.17987,-2.7364 -20.57457,-8.60599 -3.38899,-5.86959 -1.69164,-13.63492 2.83275,-22.11704 2.21338,-4.14359 5.13216,-8.40701 8.67013,-12.68764 z M 73.806659,289.42207 c 0.596363,3.59939 1.301675,7.17987 2.115934,10.73683 20.121571,-3.03056 40.065267,-6.96426 59.825577,-11.80168 -0.86588,-3.5455 -1.57119,-7.12769 -2.11593,-10.73684 -20.12157,3.03057 -40.065269,6.96484 -59.825581,11.80169 z m 358.167741,3.53001 c 0.6709,-3.58678 1.23285,-7.19306 1.68014,-10.81367 -19.93799,-4.03348 -40.02515,-7.1575 -60.24987,-9.37151 -0.40137,3.62807 -0.95762,7.23664 -1.68594,10.81368 19.9438,4.03348 40.03095,7.15751 60.25567,9.3715 z M 253.2776,251.80014 c 4.3064,0 7.80434,3.49562 7.80434,7.80147 0,4.30586 -3.49794,7.80146 -7.80434,7.80146 -4.3064,0 -7.79864,-3.4956 -7.79864,-7.80146 0,-4.30585 3.49224,-7.80147 7.79864,-7.80147 z M 194.44976,207.4462 c 7.68969,-2.12511 17.54684,-2.15263 28.61402,-0.17661 7.05891,-19.52688 17.97692,-32.05969 30.21382,-32.05969 12.2426,0 23.15491,12.53281 30.21382,32.05969 10.71163,-1.91296 20.29355,-1.94793 27.86849,-0.0218 -2.32812,1.55971 -4.65045,3.14065 -6.96707,4.74166 -1.19273,-0.11928 -2.43137,-0.19841 -3.70433,-0.24084 -4.69637,-0.15598 -9.84574,0.2374 -15.32196,1.16233 1.04356,3.43024 1.97257,7.03652 2.78113,10.7959 -1.74327,1.312 -3.47503,2.6326 -5.18959,3.96123 -0.92891,-4.79442 -2.06431,-9.34857 -3.3889,-13.60741 -6.04396,1.37164 -12.40897,3.33677 -18.92884,5.87189 3.95094,1.9118 7.9305,4.01627 11.89864,6.30769 2.35674,1.36074 4.65626,2.75703 6.89834,4.18372 -1.64002,1.29594 -3.25713,2.59876 -4.86264,3.90789 -1.63432,-1.01267 -3.29155,-2.00757 -4.9831,-2.98411 -5.4476,-3.14581 -10.91801,-5.93094 -16.31399,-8.34105 -5.39598,2.41011 -10.86069,5.19524 -16.31399,8.34105 -1.31889,0.76209 -2.62056,1.53507 -3.89932,2.31952 -1.60561,-1.31258 -3.23983,-2.61426 -4.90277,-3.90389 1.90954,-1.19731 3.86491,-2.37284 5.85469,-3.52313 3.96814,-2.29142 7.9477,-4.39589 11.90434,-6.30769 -6.52557,-2.53512 -12.89068,-4.50025 -18.93454,-5.87189 -1.20994,3.90446 -2.265,8.05664 -3.14809,12.41469 -1.70886,-1.26728 -3.44632,-2.52366 -5.2067,-3.768 0.75113,-3.39811 1.61131,-6.67009 2.56313,-9.79641 -5.47621,-0.92493 -10.63129,-1.31831 -15.32186,-1.16233 -1.26155,0.0418 -2.48299,0.11984 -3.67001,0.23683 -0.85438,-0.51666 -1.71446,-1.03103 -2.58034,-1.54252 -1.5712,-0.9278 -3.30296,-1.93073 -5.17238,-2.99673 z m 83.2214,1.02243 c -7.75272,1.80399 -15.98145,4.51687 -24.39356,8.11168 -8.41221,-3.59595 -16.64084,-6.30941 -24.39356,-8.11168 1.93816,-5.20557 4.17454,-9.86236 6.65744,-13.84997 5.08064,-8.16215 10.95823,-13.51107 17.73612,-13.51107 6.77789,0 12.65548,5.34892 17.73602,13.51107 2.483,3.98761 4.71938,8.6444 6.65754,13.84997 z M 167.72237,192.93566 c 3.09657,-3.97214 6.47405,-7.73553 10.12097,-11.2621 0,0 -3.13659,-3.8064 -6.08979,-7.39834 -9.36973,-11.38079 -22.77074,-18.69829 -37.4103,-20.42201 0,-5.7e-4 0,-5.7e-4 0,-5.7e-4 0.33255,-0.3756 0.79705,-0.86014 1.359,-1.42955 4.90857,-5.33401 11.86423,-8.31124 19.11233,-8.17993 7.2481,0.13074 14.09481,3.35798 18.80269,8.86574 8.09097,9.43459 15.99856,18.68223 15.99856,18.68223 16.39993,-11.88368 35.78748,-18.94198 55.98929,-20.37669 0,0 0.0456,-4.92975 0.0922,-9.58196 0.13766,-14.7382 -5.42459,-28.95974 -15.53405,-39.68912 0,-9.5e-4 0,-0.002 0,-0.002 0.49882,-0.0728 1.16402,-0.14623 1.96687,-0.21848 7.18497,-0.93125 14.42736,1.25924 19.89787,6.0181 5.46472,4.75887 8.63581,11.63023 8.70455,18.87777 0.13195,12.42615 0.2466,24.59597 0.2466,24.59597 20.19611,1.43472 39.58936,8.49302 55.98359,20.3767 0,0 3.20551,-3.74619 6.22745,-7.28136 9.58192,-11.20016 14.46177,-25.67115 13.6189,-40.38584 0,-9.5e-4 0,-0.002 0,-0.002 0.42999,0.26378 0.98624,0.63593 1.64573,1.09467 6.10119,3.90675 10.24132,10.24082 11.37101,17.40004 1.1296,7.1598 -0.86018,14.46009 -5.46481,20.05673 -7.88457,9.60374 -15.62009,19.00048 -15.62009,19.00048 3.01623,2.91644 5.84318,5.99574 8.48674,9.2184 -2.90157,1.72888 -5.82026,3.50249 -8.74475,5.31509 -18.05146,-21.38994 -45.05417,-34.98244 -75.20486,-34.98244 -30.86181,0 -58.42067,14.24161 -76.46642,36.50546 -2.91299,-1.55858 -5.95213,-3.16303 -9.08881,-4.79441 z M 192.68938,88.116199 c -3.44052,1.213945 -6.84101,2.531676 -10.207,3.950332 6.47976,19.287769 13.81959,38.243529 22.01381,56.866689 3.33737,-1.4697 6.74357,-2.788 10.207,-3.95034 -6.47966,-19.28776 -13.81959,-38.24352 -22.01381,-56.866681 z m 124.39336,1.22599 c -3.41761,-1.281605 -6.86963,-2.460575 -10.35607,-3.534028 -7.43738,18.939699 -14.00308,38.176429 -19.69719,57.710759 3.50365,1.02127 6.96137,2.20024 10.36177,3.53403 7.43158,-18.93969 13.99738,-38.17642 19.69149,-57.710761 z"
   id="path1-56"
   style="fill:#d49000;fill-opacity:1;stroke-width:0.573426" />
    
</svg>
