<?xml version="1.0" encoding="UTF-8" standalone="no"?>
<!-- Created with Inkscape (http://www.inkscape.org/) -->

<svg
   width="48"
   height="48"
   viewBox="0 0 12.7 12.7"
   version="1.1"
   id="svg5"
   xml:space="preserve"
   inkscape:version="1.2.2 (b0a8486541, 2022-12-01)"
   sodipodi:docname="network.svg"
   xmlns:inkscape="http://www.inkscape.org/namespaces/inkscape"
   xmlns:sodipodi="http://sodipodi.sourceforge.net/DTD/sodipodi-0.dtd"
   xmlns="http://www.w3.org/2000/svg"
   xmlns:svg="http://www.w3.org/2000/svg"><sodipodi:namedview
     id="namedview7"
     pagecolor="#ffffff"
     bordercolor="#666666"
     borderopacity="1.0"
     inkscape:showpageshadow="2"
     inkscape:pageopacity="0.0"
     inkscape:pagecheckerboard="0"
     inkscape:deskcolor="#d1d1d1"
     inkscape:document-units="mm"
     showgrid="false"
     inkscape:zoom="9.0911235"
     inkscape:cx="0.27499351"
     inkscape:cy="24.859414"
     inkscape:window-width="1920"
     inkscape:window-height="1163"
     inkscape:window-x="1920"
     inkscape:window-y="0"
     inkscape:window-maximized="1"
     inkscape:current-layer="layer1" /><defs
     id="defs2" /><g
     inkscape:label="Layer 1"
     inkscape:groupmode="layer"
     id="layer1"><path
       style="fill:#28532f;fill-opacity:1;stroke-width:0.0297529;stroke-linecap:round"
       d="M 6.2722902,10.712779 C 6.2231978,10.708702 6.1517903,10.6957 6.1136078,10.683754 6.0334005,10.658659 5.9011862,10.594974 5.8507897,10.557168 5.7492122,10.480963 5.6325227,10.346295 5.5830013,10.248116 5.4795642,10.043046 5.4642579,9.775832 5.5429575,9.5490499 5.6289415,9.3012785 5.8668528,9.085374 6.1263082,9.0196608 c 0.039712,-0.01006 0.076562,-0.022644 0.081885,-0.027969 0.00616,-0.00616 0.00876,-0.275854 0.00714,-0.7428338 l -0.00254,-0.7331553 -0.094218,-0.02061 c -0.05182,-0.011337 -0.118764,-0.028643 -0.148765,-0.038457 -0.061333,-0.02007 -0.1976874,-0.090622 -0.2724925,-0.1409984 -0.027262,-0.018358 -0.051974,-0.03338 -0.054917,-0.03338 -0.00293,0 -0.4225193,0.4174553 -0.9323931,0.9276784 -0.5670445,0.5674252 -0.9264682,0.9342728 -0.9255492,0.9446586 8.196e-4,0.00933 0.013639,0.045771 0.028472,0.080959 0.089097,0.2113529 0.081444,0.4895599 -0.019214,0.6984747 -0.08381,0.173945 -0.2213946,0.311676 -0.3975492,0.397973 -0.1381656,0.06769 -0.2001233,0.08416 -0.3427394,0.09112 C 2.7064178,10.440076 2.3922851,10.255458 2.2401455,9.9451523 2.1715984,9.8053436 2.1499111,9.7153112 2.1493653,9.5682814 2.1485195,9.3372355 2.2276449,9.1345548 2.3822818,8.9717626 2.4973047,8.850673 2.609212,8.7806956 2.7633462,8.7334747 c 0.078786,-0.024139 0.1029064,-0.026822 0.2460321,-0.027396 0.1371972,-5.288e-4 0.1693117,0.00247 0.2371835,0.022101 0.096465,0.027932 0.2014307,0.079558 0.2731013,0.1343109 0.02974,0.022724 0.060432,0.045196 0.068205,0.049946 0.01061,0.00645 0.2423999,-0.2196214 0.9302565,-0.9074481 0.5038678,-0.5038492 0.9160277,-0.9205588 0.915911,-0.9260248 -1.177e-4,-0.00544 -0.019731,-0.04006 -0.043583,-0.07688 C 5.2424458,6.7736403 5.1767652,6.5086778 5.2052945,6.255138 5.2280854,6.0526091 5.27799,5.9113129 5.3913932,5.7282468 5.4266964,5.6712551 5.433512,5.6533245 5.4253082,5.6389876 5.4196646,5.6291218 5.1697362,5.3763313 4.8699137,5.0772342 L 4.3247808,4.533421 4.2621385,4.5628306 C 4.1700321,4.6060732 4.1074118,4.6176951 3.997494,4.6119498 3.8053264,4.6019062 3.6520498,4.5121205 3.5445478,4.3466266 3.4062112,4.1336647 3.4295522,3.8540972 3.6020325,3.6581024 3.7079741,3.5377177 3.8584576,3.4710904 4.0259369,3.4704166 c 0.062581,-2.493e-4 0.1140248,0.00554 0.1532053,0.017263 0.070431,0.021064 0.1675813,0.068715 0.2087894,0.1024088 0.052202,0.042686 0.1321216,0.1428167 0.1585685,0.198674 0.072658,0.1534557 0.072709,0.3497823 1.322e-4,0.5002299 l -0.023551,0.048817 0.5552956,0.5548397 c 0.3054119,0.3051619 0.5598326,0.5548396 0.5653783,0.5548396 0.00555,0 0.038372,-0.020188 0.072951,-0.044861 C 5.8312945,5.3208599 6.037581,5.241562 6.1911856,5.2202361 6.4685077,5.1817341 6.7722995,5.2523931 6.9969561,5.4076553 L 7.0670574,5.4561027 7.7838665,4.7392418 8.5006757,4.0223809 8.4750647,3.9718446 C 8.4609794,3.9440484 8.4376592,3.8820013 8.4232329,3.8339593 8.4011101,3.7602679 8.3968453,3.726449 8.3959538,3.6176799 8.3945729,3.4505802 8.412607,3.3730349 8.4884327,3.2197381 8.5598917,3.075276 8.6449706,2.9777735 8.7761214,2.8900481 8.9318772,2.785865 9.0687251,2.7453614 9.26246,2.7461032 c 0.2220001,8.486e-4 0.3851808,0.059825 0.5562444,0.2010311 0.1232555,0.1017431 0.2355006,0.2803741 0.2780126,0.4424392 0.02994,0.1141472 0.03039,0.3051123 0.001,0.4235762 C 10.021272,4.1212854 9.7847917,4.3585613 9.4658005,4.4472216 9.3554394,4.4778944 9.1638452,4.4777415 9.0492582,4.4468729 8.9457077,4.4189895 8.8013839,4.3482472 8.7308721,4.2908145 l -0.05613,-0.045721 -0.7045694,0.7045701 -0.7045702,0.7045702 0.05513,0.082577 c 0.085863,0.1286114 0.1511767,0.2974772 0.1767183,0.4569012 0.017921,0.1118562 0.00751,0.3478808 -0.019583,0.4438836 -0.040317,0.1428916 -0.088228,0.2518929 -0.1554182,0.3536098 -0.029381,0.044484 -0.053423,0.083153 -0.053423,0.085937 0,0.00479 1.0379921,1.0450572 1.0942186,1.0966678 0.018764,0.017227 0.02939,0.020955 0.038587,0.013549 0.031472,-0.025357 0.1658996,-0.06372 0.2407134,-0.068703 0.3401051,-0.022637 0.629721,0.2644773 0.6068874,0.6016505 -0.00612,0.089895 -0.04528,0.2168422 -0.085741,0.2776942 C 9.0902677,9.1084397 8.9605733,9.206706 8.8409755,9.2425092 8.7525288,9.268995 8.5940439,9.2671972 8.5037763,9.2387096 8.3655594,9.1950219 8.2403173,9.0893495 8.1726479,8.959281 8.0841066,8.789094 8.0777251,8.6244194 8.1533179,8.4604259 L 8.1844635,8.3928473 7.630047,7.8376525 C 7.3251197,7.5322913 7.0724256,7.2824004 7.0685049,7.282338 7.0645664,7.2822771 7.0311122,7.3017477 6.9941223,7.325611 6.8483686,7.41963 6.7249378,7.4692372 6.5574357,7.5011183 l -0.061986,0.011801 v 0.7421529 0.7421521 l 0.042152,0.010713 c 0.1146454,0.029144 0.2068692,0.068225 0.2871595,0.1216763 0.1819192,0.1211056 0.2885135,0.2640031 0.3604915,0.4832675 0.02512,0.07652 0.027733,0.09803 0.028338,0.2330643 8.196e-4,0.1782536 -0.010539,0.2280136 -0.088136,0.3867896 -0.1031452,0.211053 -0.2580971,0.350766 -0.477487,0.430528 -0.1323223,0.04812 -0.2320303,0.06125 -0.3756655,0.04949 z"
       id="path363" /><circle
       style="fill:none;fill-opacity:1;stroke:#28532f;stroke-width:0.311863;stroke-linecap:round;stroke-dasharray:none;stroke-opacity:1"
       id="path1301"
       cx="6.3499999"
       cy="6.3499999"
       r="5.9475417" /></g></svg>
