<?xml version="1.0" encoding="UTF-8" standalone="no"?>
<!-- Created with Inkscape (http://www.inkscape.org/) -->

<svg
   width="48"
   height="48"
   viewBox="0 0 12.7 12.7"
   version="1.1"
   id="svg5"
   xml:space="preserve"
   inkscape:version="1.2.2 (b0a8486541, 2022-12-01)"
   sodipodi:docname="profile.svg"
   xmlns:inkscape="http://www.inkscape.org/namespaces/inkscape"
   xmlns:sodipodi="http://sodipodi.sourceforge.net/DTD/sodipodi-0.dtd"
   xmlns="http://www.w3.org/2000/svg"
   xmlns:svg="http://www.w3.org/2000/svg"><sodipodi:namedview
     id="namedview7"
     pagecolor="#ffffff"
     bordercolor="#666666"
     borderopacity="1.0"
     inkscape:showpageshadow="2"
     inkscape:pageopacity="0.0"
     inkscape:pagecheckerboard="0"
     inkscape:deskcolor="#d1d1d1"
     inkscape:document-units="mm"
     showgrid="false"
     inkscape:zoom="9.0911235"
     inkscape:cx="37.509115"
     inkscape:cy="27.444353"
     inkscape:window-width="1920"
     inkscape:window-height="1016"
     inkscape:window-x="0"
     inkscape:window-y="27"
     inkscape:window-maximized="1"
     inkscape:current-layer="layer1" /><defs
     id="defs2" /><g
     inkscape:label="Layer 1"
     inkscape:groupmode="layer"
     id="layer1"><circle
       style="fill:none;fill-opacity:1;stroke:#28532f;stroke-width:0.311863;stroke-linecap:round;stroke-dasharray:none;stroke-opacity:1"
       id="path1301"
       cx="6.3499999"
       cy="6.3499999"
       r="5.9475417" /><path
       id="path2774"
       style="fill:#28532f;fill-opacity:1;stroke:none;stroke-width:0.00856544;stroke-linecap:round;stroke-dasharray:none;stroke-opacity:1"
       d="m 6.3422766,2.4393946 c -0.09249,-8.98e-5 -0.275042,0.016557 -0.377721,0.034342 -0.537224,0.093018 -1.029255,0.3921699 -1.372058,0.8343152 -0.323492,0.4172365 -0.487155,0.9622506 -0.449216,1.4957308 0.01015,0.1427251 0.04238,0.3391072 0.07176,0.4363382 0.0066,0.021811 0.01683,0.055784 0.02267,0.075516 0.07792,0.2635455 0.240391,0.5544369 0.441167,0.7897821 0.03694,0.043301 0.193328,0.1976901 0.239429,0.2363451 0.190117,0.1594055 0.400641,0.2848802 0.62681,0.3735634 0.177285,0.069515 0.336554,0.1088452 0.551425,0.1364142 0.08414,0.010792 0.144127,0.013117 0.291072,0.010868 0.101793,-0.00161 0.207191,-0.0068 0.234198,-0.011529 0.02701,-0.00473 0.08824,-0.015196 0.136011,-0.023342 0.08337,-0.014204 0.106951,-0.01976 0.20764,-0.048555 0.163024,-0.046627 0.329045,-0.1168504 0.479799,-0.2030795 0.0187,-0.010698 0.03873,-0.021735 0.04453,-0.024542 0.02602,-0.012597 0.162799,-0.1083094 0.234735,-0.1641807 0.09304,-0.072265 0.271251,-0.2474736 0.339091,-0.3333236 0.02627,-0.033236 0.05354,-0.06721 0.06049,-0.075516 0.01686,-0.020148 0.114283,-0.1673238 0.114283,-0.172631 0,-0.00227 0.0099,-0.018749 0.02186,-0.036619 0.04771,-0.071094 0.127444,-0.24262 0.178532,-0.3837583 0.141791,-0.3917088 0.16144,-0.8899323 0.05124,-1.2993601 -0.01428,-0.053053 -0.07602,-0.2383844 -0.08933,-0.2681336 -0.0056,-0.012465 -0.01745,-0.039719 -0.02642,-0.0605 -0.0698,-0.1615904 -0.175604,-0.3347072 -0.302474,-0.4948205 -0.06557,-0.082746 -0.225321,-0.2468149 -0.2904,-0.2983146 -0.02077,-0.016443 -0.04525,-0.037007 -0.05432,-0.045607 -0.0226,-0.021405 -0.2411,-0.1696797 -0.250026,-0.1696797 -0.004,0 -0.01525,-0.00652 -0.02522,-0.014355 -0.02297,-0.018069 -0.168676,-0.091534 -0.233259,-0.1176356 -0.02701,-0.010915 -0.05595,-0.022973 -0.06425,-0.026829 -0.02013,-0.00936 -0.07666,-0.029258 -0.109452,-0.0385 -0.01454,-0.00406 -0.03327,-0.010452 -0.04158,-0.014081 -0.02329,-0.010178 -0.196337,-0.051881 -0.268132,-0.064649 -0.08801,-0.015659 -0.296778,-0.033567 -0.392879,-0.033671 z m -1.666483,4.2681499 c -0.0068,0 -0.03314,0.01254 -0.05862,0.027897 -0.0451,0.027188 -0.18983,0.1207675 -0.204957,0.1325245 -0.0042,0.00321 -0.04814,0.03644 -0.09765,0.07391 -0.339357,0.2568403 -0.639827,0.5988676 -0.868519,0.9885691 -0.04573,0.077926 -0.170752,0.3248875 -0.170752,0.3372133 0,0.00284 -0.0049,0.015744 -0.01087,0.028842 -0.02398,0.052902 -0.04064,0.093698 -0.05312,0.1295741 -0.0072,0.020781 -0.01615,0.044539 -0.01972,0.052845 -0.01582,0.036808 -0.06476,0.1979083 -0.0896,0.2946932 -0.105238,0.4100166 -0.133546,0.9092354 -0.06117,1.0801834 0.0483,0.114078 0.07917,0.1669119 0.148084,0.2531109 0.154007,0.192638 0.45803,0.387948 0.800244,0.514271 0.03324,0.01227 0.06721,0.02558 0.07552,0.02951 0.01979,0.0094 0.235464,0.0777 0.298449,0.09457 0.02701,0.0073 0.06434,0.0174 0.08303,0.02267 0.2491,0.07027 0.668019,0.143302 1.017945,0.177459 0.230346,0.02248 0.251681,0.02392 0.613797,0.04024 0.290692,0.0131 0.758237,-0.0022 1.121765,-0.03662 0.407927,-0.03865 0.853291,-0.118433 1.140678,-0.20442 0.02077,-0.0062 0.05656,-0.01677 0.07941,-0.02347 0.06138,-0.01798 0.196751,-0.06272 0.222797,-0.07364 0.01246,-0.0052 0.04476,-0.01761 0.07176,-0.02736 0.02701,-0.0098 0.05762,-0.02213 0.068,-0.0275 0.01039,-0.0054 0.02119,-0.0098 0.02401,-0.0098 0.0058,-5.3e-5 0.08372,-0.03473 0.157339,-0.07015 0.09063,-0.04361 0.263403,-0.148332 0.325947,-0.197446 0.01102,-0.0087 0.03129,-0.02422 0.04507,-0.03461 0.0455,-0.03431 0.2105898,-0.203938 0.2105898,-0.216359 0,-0.0041 0.03212,-0.05028 0.03863,-0.05553 0.0025,-0.0021 0.02053,-0.03638 0.03984,-0.07619 0.06911,-0.142441 0.08336,-0.240152 0.0723,-0.49415 -0.004,-0.09143 -0.01048,-0.184922 -0.01449,-0.207774 -0.004,-0.02285 -0.0095,-0.063666 -0.0122,-0.090674 -0.0058,-0.057659 -0.0492,-0.281189 -0.07042,-0.3625493 C 9.5659894,8.6510741 9.4955626,8.4331824 9.4658716,8.3655957 9.4603906,8.3531309 9.4413956,8.3089608 9.4236206,8.2674093 9.3238326,8.0341592 9.1375446,7.720697 8.9927816,7.5424138 8.8678866,7.3886009 8.7699916,7.2809124 8.6614696,7.1779716 8.5833076,7.1038256 8.4877016,7.019427 8.4490016,6.9904519 c -0.01089,-0.00813 -0.04653,-0.035382 -0.07928,-0.060632 -0.05104,-0.03936 -0.170851,-0.1227275 -0.218638,-0.1521081 -0.08789,-0.054036 -0.117386,-0.070149 -0.12783,-0.070149 -0.0068,0 -0.03594,0.018834 -0.06479,0.041845 -0.07963,0.063534 -0.224426,0.1593724 -0.324336,0.2146153 -0.125717,0.069515 -0.378944,0.1816172 -0.410182,0.1816172 -0.0054,0 -0.01309,0.00302 -0.01703,0.00671 -0.01308,0.012106 -0.207004,0.066737 -0.309447,0.087187 -0.22505,0.044917 -0.303885,0.052477 -0.547671,0.052449 -0.189489,-2.27e-5 -0.240878,-0.00265 -0.343652,-0.017039 -0.06647,-0.00926 -0.132737,-0.019893 -0.147279,-0.023606 -0.01454,-0.00369 -0.06053,-0.013939 -0.102076,-0.022803 -0.09137,-0.019496 -0.266789,-0.07133 -0.332387,-0.098187 -0.191018,-0.0782 -0.336756,-0.1485463 -0.423059,-0.2041521 -0.01247,-0.00803 -0.02758,-0.016935 -0.03367,-0.019855 -0.02629,-0.012569 -0.151509,-0.098864 -0.212871,-0.1467423 -0.0367,-0.028643 -0.07222,-0.052042 -0.079,-0.052042 z" /></g></svg>
