<?xml version="1.0" encoding="UTF-8" standalone="no"?>
<!DOCTYPE svg PUBLIC "-//W3C//DTD SVG 1.1//EN" "http://www.w3.org/Graphics/SVG/1.1/DTD/svg11.dtd">
<svg width="100%" height="100%" viewBox="0 0 729 707" version="1.1" xmlns="http://www.w3.org/2000/svg" xmlns:xlink="http://www.w3.org/1999/xlink" xml:space="preserve" xmlns:serif="http://www.serif.com/" style="fill-rule:evenodd;clip-rule:evenodd;stroke-linejoin:round;stroke-miterlimit:2;">
    <g transform="matrix(1,0,0,1,-8351,-319)">
        <g transform="matrix(2.06957,0,0,1,-6139.49,0)">
            <rect id="Artboard3" x="5757.28" y="0" width="1832.95" height="2480.32" style="fill:none;"/>
            <g id="Artboard31" serif:id="Artboard3">
                <g transform="matrix(0.483192,0,0,1,2966.55,0)">
                    <path d="M8865.83,556.439C8939.77,512.223 9007.13,484.92 9014.71,497.876C8985.33,525.372 8930.67,562.698 8886.06,590.899L8886.02,590.924L8885.88,591.011L8884.72,591.742L8884.28,592.023L8884.1,592.135L8883.86,592.287L8883.2,592.703L8882.45,593.175L8882.19,593.335L8882.04,593.43L8881.68,593.657L8880.36,594.485L8880.29,594.53C8879.69,594.907 8879.09,595.282 8878.49,595.657L8878.43,595.697L8878.22,595.828L8877.19,596.47L8876.76,596.736L8876.56,596.859L8876.31,597.017L8875.71,597.391L8874.98,597.846L8874.72,598.008L8874.57,598.099C8858.34,608.186 8844.01,616.706 8833.57,622.605C8803.07,639.82 8773.33,652.456 8744.22,661.257C8742.09,661.891 8740.48,663.518 8739.81,665.534C8739.93,666.524 8739.99,667.532 8739.99,668.554C8739.99,678.897 8733.44,687.721 8724.27,691.102C8723.09,692.601 8722.59,694.582 8723,696.542C8732.69,742.873 8737.71,793.041 8739.09,838.566C8739.14,840.057 8739.18,841.543 8739.22,843.023L8739.22,843.062L8739.22,843.108C8739.26,844.562 8739.29,846.01 8739.32,847.462L8739.32,847.524L8739.32,847.6C8739.35,849.041 8739.38,850.475 8739.4,851.897L8739.4,851.952L8739.4,852.022C8739.42,853.47 8739.44,854.912 8739.45,856.343C8740.2,931.303 8730.84,989.611 8716.45,989.691C8707.73,952.247 8702.23,899.84 8699.57,855.055L8699.55,854.819L8699.53,854.501L8699.5,853.849L8699.44,852.869L8699.42,852.552L8699.41,852.426C8699.38,851.761 8699.34,851.097 8699.3,850.436L8699.29,850.298L8699.28,849.978L8699.23,849.054L8699.19,848.366L8699.17,848.058L8699.16,847.849C8699.12,847.177 8699.09,846.506 8699.05,845.835L8698.98,844.326L8698.95,843.809L8698.94,843.625L8698.93,843.422C8697.96,823.98 8697.56,806.469 8697.68,792.953C8698.02,757.915 8701.96,725.82 8708.9,696.192C8709.31,694.474 8709.01,692.721 8708.16,691.275C8698.73,688.031 8691.95,679.078 8691.95,668.554C8691.95,666.682 8692.16,664.86 8692.57,663.111C8691.77,661.751 8690.49,660.683 8688.91,660.167C8561.2,618.12 8411.41,518.712 8423.28,497.876C8461.87,509.595 8519.95,537.311 8565.6,561.204L8565.7,561.256L8565.85,561.332L8566.67,561.76L8567.56,562.227L8567.7,562.301L8567.78,562.345C8569.06,563.018 8570.33,563.687 8571.59,564.353L8571.63,564.374L8571.74,564.431L8572.83,565.008L8573.4,565.31L8573.57,565.401L8573.76,565.498L8574.35,565.811L8575.29,566.314L8575.5,566.423L8575.59,566.47C8576.19,566.793 8576.8,567.116 8577.4,567.438C8593.71,576.142 8607.85,584.053 8618.1,590.104C8648.26,607.905 8674.07,627.344 8696.25,648.155C8697.5,649.338 8699.12,649.957 8700.75,649.974C8704.9,646.574 8710.2,644.532 8715.97,644.532C8722.03,644.532 8727.56,646.777 8731.79,650.479C8733.79,650.865 8735.91,650.321 8737.5,648.895C8771.76,618.297 8813.52,588.576 8854.17,563.516L8854.32,563.423L8854.47,563.332L8855,563.007L8856.16,562.292L8856.22,562.255L8856.24,562.244C8856.84,561.877 8857.43,561.512 8858.03,561.149L8858.12,561.094L8858.33,560.968L8859.18,560.451L8859.78,560.08L8860.02,559.94L8860.19,559.835C8861.35,559.133 8862.5,558.435 8863.65,557.744L8863.8,557.652L8864.05,557.501L8864.73,557.095L8865.45,556.666L8865.69,556.519L8865.83,556.439ZM8539,601.751C8544.11,604.616 8549.3,607.47 8554.57,610.304C8548,628.499 8544.41,648.111 8544.41,668.554C8544.41,754.492 8607.74,825.756 8690.23,838.192C8690.49,844.006 8690.81,850.018 8691.18,856.169C8682.05,854.961 8672.97,853.082 8664.04,850.532C8664.04,850.532 8661.03,858.583 8658.18,866.18C8649.16,890.248 8649.8,916.873 8659.95,940.483C8659.95,940.484 8659.96,940.485 8659.96,940.487C8659.1,940.309 8657.96,940.032 8656.61,939.674C8644.27,936.912 8633.71,929.003 8627.59,917.943C8621.47,906.884 8620.38,893.734 8624.59,881.816C8631.78,861.374 8638.85,841.362 8638.85,841.362C8606.61,826.964 8579.04,803.83 8559.26,774.577C8559.26,774.577 8551.77,778.805 8544.71,782.794C8522.33,795.434 8505.7,816.238 8498.31,840.856C8498.31,840.857 8498.31,840.858 8498.31,840.859C8497.76,840.171 8497.07,839.228 8496.26,838.084C8488.59,828.04 8485.58,815.192 8488,802.785C8490.42,790.379 8498.04,779.602 8508.92,773.178C8527.58,762.144 8545.85,751.358 8545.85,751.358C8530.41,719.603 8524.16,684.16 8527.81,649.038C8527.81,649.038 8519.36,647.465 8511.38,645.98C8486.11,641.276 8460,646.526 8438.52,660.631C8438.51,660.632 8438.51,660.632 8438.51,660.633C8438.54,659.756 8438.61,658.589 8438.73,657.194C8439.31,644.568 8445.26,632.792 8455.09,624.844C8464.92,616.896 8477.68,613.535 8490.15,615.611C8511.53,619.148 8532.47,622.634 8532.47,622.634C8534.25,615.53 8536.43,608.558 8539,601.751ZM8509.6,909.49C8514.43,913.628 8519.39,917.62 8524.47,921.459C8547.95,894.857 8570.18,867.248 8591.16,838.632C8586.02,834.868 8581.06,830.875 8576.29,826.663C8552.81,853.265 8530.58,880.874 8509.6,909.49ZM8891.34,597.544C8894.63,605.68 8897.37,614.06 8899.52,622.634C8899.52,622.634 8908,621.222 8916,619.889C8941.36,615.667 8964.1,601.803 8979.46,581.199C8979.46,581.199 8979.47,581.198 8979.47,581.197C8979.74,582.029 8980.07,583.152 8980.44,584.503C8984.21,596.566 8982.64,609.668 8976.13,620.498C8969.61,631.329 8958.77,638.851 8946.34,641.165C8925.04,645.154 8904.18,649.038 8904.18,649.038C8907.83,684.16 8901.58,719.603 8886.13,751.358C8886.13,751.358 8893.54,755.727 8900.52,759.851C8922.66,772.914 8948.99,776.91 8974.01,771.004C8974.01,771.005 8974.01,771.004 8974.01,771.004C8973.69,771.819 8973.22,772.89 8972.63,774.16C8967.77,785.828 8958.14,794.857 8946.19,798.964C8934.24,803.072 8921.1,801.865 8910.09,795.65C8891.21,785.014 8872.73,774.577 8872.73,774.577C8852.95,803.83 8825.38,826.964 8793.14,841.362C8793.14,841.362 8796,849.468 8798.7,857.118C8807.26,881.354 8824.86,901.341 8847.82,912.896C8847.83,912.898 8847.83,912.898 8847.83,912.899C8847.06,913.315 8846.01,913.833 8844.74,914.428C8833.52,920.241 8820.34,920.972 8808.54,916.434C8796.75,911.897 8787.45,902.526 8783.02,890.69C8775.39,870.406 8767.94,850.532 8767.94,850.532C8761.3,852.428 8754.58,853.954 8747.82,855.108C8747.75,849.241 8747.63,843.276 8747.44,837.229C8827.12,822.434 8887.53,752.494 8887.53,668.554C8887.53,646.88 8883.5,626.14 8876.16,607.048C8881.05,604.021 8886.13,600.843 8891.34,597.544ZM8917.29,913.508C8922.2,909.466 8926.99,905.278 8931.66,900.948C8909.53,873.204 8886.2,846.517 8861.67,820.886C8857.07,825.288 8852.27,829.479 8847.3,833.447C8869.42,861.191 8892.75,887.878 8917.29,913.508ZM8586.31,626.648C8590.7,628.811 8595.13,630.948 8599.58,633.053C8600.42,634.906 8601.35,636.783 8602.36,638.681C8606.22,645.907 8611.31,653.342 8617.48,660.807C8621.72,656.277 8626.31,651.761 8631.24,647.297C8634.74,648.787 8638.24,650.249 8641.74,651.682C8635.36,657.233 8629.51,662.884 8624.27,668.554C8631.61,676.491 8640.13,684.388 8649.64,692.03C8649.08,684.391 8648.79,676.547 8648.79,668.554C8648.79,663.863 8648.89,659.223 8649.09,654.645C8652.47,655.99 8655.85,657.305 8659.23,658.588C8659.13,661.88 8659.08,665.204 8659.08,668.554C8659.08,679.528 8659.64,690.212 8660.7,700.463C8669.05,706.511 8678.02,712.339 8687.52,717.826C8690.07,719.293 8692.61,720.715 8695.15,722.092C8694.57,725.656 8694.03,729.253 8693.53,732.882C8689.81,730.927 8686.09,728.877 8682.38,726.733C8675.46,722.737 8668.81,718.562 8662.48,714.257C8664.34,726.321 8666.92,737.645 8670.12,747.973C8677.32,746.339 8684.78,744.223 8692.41,741.636C8691.98,745.325 8691.59,749.048 8691.24,752.808C8685.18,754.736 8679.23,756.376 8673.43,757.725C8676.81,766.803 8680.71,774.924 8685.04,781.878C8686.42,784.106 8687.85,786.213 8689.3,788.183C8689.27,789.737 8689.25,791.301 8689.23,792.871C8689.2,796.215 8689.2,799.8 8689.24,803.59C8679.02,793.858 8670.11,778.715 8663.28,759.816C8627.64,766.181 8599.19,760.625 8588.52,742.14C8577.84,723.654 8587.26,696.242 8610.59,668.554C8598.41,654.101 8590.02,639.723 8586.31,626.648ZM8846.03,625.194C8842.54,638.649 8833.99,653.561 8821.35,668.554C8844.69,696.242 8854.1,723.654 8843.43,742.14C8832.75,760.625 8804.31,766.181 8768.66,759.816C8762.48,776.924 8754.59,790.954 8745.58,800.679C8745.22,795.718 8744.83,790.732 8744.39,785.728C8745.24,784.489 8746.08,783.205 8746.9,781.878C8751.23,774.924 8755.13,766.803 8758.51,757.725C8752.77,756.391 8746.88,754.77 8740.88,752.867C8740.41,749.103 8739.91,745.341 8739.38,741.585C8747.06,744.194 8754.57,746.328 8761.82,747.973C8765.02,737.644 8767.61,726.32 8769.47,714.257C8763.13,718.562 8756.48,722.737 8749.56,726.733C8745.75,728.932 8741.94,731.032 8738.13,733.032C8737.58,729.441 8737.01,725.861 8736.42,722.293C8739.09,720.853 8741.75,719.364 8744.42,717.826C8753.92,712.339 8762.9,706.511 8771.24,700.463C8772.31,690.212 8772.86,679.528 8772.86,668.554C8772.86,665.849 8772.83,663.162 8772.76,660.494C8776.14,659.222 8779.53,657.898 8782.93,656.521C8783.08,660.489 8783.15,664.503 8783.15,668.554C8783.15,676.547 8782.86,684.391 8782.3,692.03C8791.82,684.387 8800.33,676.49 8807.68,668.554C8802.81,663.298 8797.44,658.06 8791.59,652.901C8795,651.435 8798.42,649.914 8801.84,648.338C8806.34,652.462 8810.55,656.628 8814.46,660.807C8820.64,653.342 8825.72,645.907 8829.58,638.681C8830.62,636.734 8831.57,634.809 8832.43,632.908C8834.19,631.942 8835.95,630.961 8837.72,629.965C8840.27,628.525 8843.05,626.929 8846.03,625.194ZM8814.46,676.301C8820.64,683.766 8825.72,691.201 8829.58,698.427C8837.48,713.219 8840.43,726.761 8834.52,736.997C8828.61,747.233 8815.4,751.448 8798.65,752.005C8790.46,752.277 8781.48,751.591 8771.93,749.978C8775.96,736.694 8779.04,721.9 8780.94,706.066C8793.71,696.5 8804.98,686.436 8814.46,676.301ZM8617.48,676.301C8626.96,686.439 8638.24,696.502 8651,706.066C8652.9,721.904 8655.98,736.701 8660.02,749.978C8650.47,751.591 8641.48,752.277 8633.3,752.005C8616.54,751.448 8603.34,747.233 8597.42,736.997C8591.51,726.761 8594.47,713.219 8602.36,698.427C8606.22,691.201 8611.31,683.766 8617.48,676.301ZM8402.99,720.558C8404.03,726.835 8405.26,733.079 8406.68,739.282C8441.77,733.997 8476.55,727.137 8511.01,718.701C8509.5,712.518 8508.27,706.271 8507.32,699.977C8472.23,705.262 8437.45,712.123 8402.99,720.558ZM9027.6,726.714C9028.77,720.459 9029.75,714.17 9030.53,707.856C8995.76,700.822 8960.73,695.374 8925.46,691.513C8924.76,697.84 8923.79,704.133 8922.52,710.371C8957.3,717.405 8992.33,722.853 9027.6,726.714ZM8715.97,654.949C8723.48,654.949 8729.58,661.045 8729.58,668.554C8729.58,676.063 8723.48,682.159 8715.97,682.159C8708.46,682.159 8702.37,676.063 8702.37,668.554C8702.37,661.045 8708.46,654.949 8715.97,654.949ZM8613.38,577.6C8626.79,573.894 8643.98,573.846 8663.28,577.292C8675.59,543.239 8694.63,521.383 8715.97,521.383C8737.32,521.383 8756.35,543.239 8768.66,577.292C8787.34,573.956 8804.05,573.895 8817.26,577.254C8813.2,579.974 8809.15,582.731 8805.11,585.523C8803.03,585.315 8800.87,585.177 8798.65,585.103C8790.46,584.831 8781.48,585.517 8771.93,587.13C8773.75,593.112 8775.37,599.401 8776.78,605.957C8773.74,608.245 8770.72,610.548 8767.73,612.865C8766.11,604.504 8764.13,596.562 8761.82,589.135C8751.28,591.527 8740.18,594.954 8728.81,599.375C8735.7,602.709 8742.64,606.379 8749.56,610.375C8753.67,612.748 8757.68,615.183 8761.59,617.671C8758.73,619.931 8755.91,622.203 8753.11,624.486C8750.26,622.72 8747.37,620.985 8744.42,619.282C8734.92,613.796 8725.38,608.939 8715.97,604.736C8706.56,608.939 8697.03,613.796 8687.52,619.282C8685.22,620.611 8682.95,621.959 8680.72,623.327C8677.92,621.038 8675.07,618.768 8672.17,616.519C8675.5,614.431 8678.91,612.381 8682.38,610.375C8689.3,606.379 8696.24,602.709 8703.14,599.375C8691.76,594.954 8680.66,591.527 8670.12,589.135C8668.01,595.944 8666.17,603.185 8664.63,610.785C8661.65,608.575 8658.62,606.384 8655.55,604.214C8656.86,598.288 8658.36,592.582 8660.02,587.13C8650.47,585.517 8641.48,584.831 8633.3,585.103C8631.1,585.176 8628.97,585.312 8626.9,585.516C8625.41,584.615 8623.91,583.718 8622.4,582.826C8619.66,581.208 8616.64,579.459 8613.38,577.6ZM8758.51,579.383C8744.99,582.529 8730.64,587.26 8715.97,593.529C8701.3,587.258 8686.95,582.526 8673.43,579.383C8676.81,570.305 8680.71,562.184 8685.04,555.23C8693.9,540.996 8704.15,531.668 8715.97,531.668C8727.79,531.668 8738.04,540.996 8746.9,555.23C8751.23,562.184 8755.13,570.305 8758.51,579.383ZM8566.77,552.295C8572.17,545.368 8578.06,538.805 8584.42,532.655C8584.42,532.655 8578.95,526.017 8573.8,519.753C8557.46,499.906 8534.09,487.145 8508.56,484.139C8508.56,484.138 8508.56,484.138 8508.56,484.138C8509.14,483.483 8509.95,482.638 8510.93,481.645C8519.49,472.343 8531.62,467.151 8544.26,467.38C8556.9,467.608 8568.84,473.236 8577.05,482.841C8591.16,499.294 8604.95,515.421 8604.95,515.421C8633.55,494.697 8667.36,482.388 8702.59,479.886C8702.59,479.886 8702.67,471.289 8702.75,463.176C8702.99,437.474 8693.29,412.673 8675.66,393.962C8675.66,393.96 8675.66,393.959 8675.66,393.958C8676.53,393.831 8677.69,393.703 8679.09,393.577C8691.62,391.953 8704.25,395.773 8713.79,404.072C8723.32,412.371 8728.85,424.354 8728.97,436.993C8729.2,458.663 8729.4,479.886 8729.4,479.886C8764.62,482.388 8798.44,494.697 8827.03,515.421C8827.03,515.421 8832.62,508.888 8837.89,502.723C8854.6,483.191 8863.11,457.955 8861.64,432.294C8861.64,432.292 8861.64,432.291 8861.64,432.29C8862.39,432.75 8863.36,433.399 8864.51,434.199C8875.15,441.012 8882.37,452.058 8884.34,464.543C8886.31,477.029 8882.84,489.76 8874.81,499.52C8861.06,516.268 8847.57,532.655 8847.57,532.655C8852.83,537.741 8857.76,543.111 8862.37,548.731C8857.31,551.746 8852.22,554.839 8847.12,558C8815.64,520.698 8768.55,496.994 8715.97,496.994C8662.15,496.994 8614.09,521.83 8582.62,560.656C8577.54,557.938 8572.24,555.14 8566.77,552.295ZM8610.31,369.5C8604.31,371.617 8598.38,373.915 8592.51,376.389C8603.81,410.025 8616.61,443.082 8630.9,475.559C8636.72,472.996 8642.66,470.697 8648.7,468.67C8637.4,435.034 8624.6,401.977 8610.31,369.5ZM8827.24,371.638C8821.28,369.403 8815.26,367.347 8809.18,365.475C8796.21,398.504 8784.76,432.051 8774.83,466.117C8780.94,467.898 8786.97,469.954 8792.9,472.28C8805.86,439.251 8817.31,405.704 8827.24,371.638Z"/>
                </g>
            </g>
        </g>
    </g>
</svg>
