<?xml version="1.0" encoding="UTF-8" standalone="no"?>
<svg
   width="100%"
   height="100%"
   viewBox="0 0 729 707"
   version="1.1"
   xml:space="preserve"
   style="fill-rule:evenodd;clip-rule:evenodd;stroke-linejoin:round;stroke-miterlimit:2;"
   id="svg260"
   sodipodi:docname="icon_green.svg"
   inkscape:version="1.2.2 (732a01da63, 2022-12-09, custom)"
   xmlns:inkscape="http://www.inkscape.org/namespaces/inkscape"
   xmlns:sodipodi="http://sodipodi.sourceforge.net/DTD/sodipodi-0.dtd"
   xmlns="http://www.w3.org/2000/svg"
   xmlns:svg="http://www.w3.org/2000/svg"
   xmlns:serif="http://www.serif.com/"><defs
   id="defs264"><filter
     style="color-interpolation-filters:sRGB;"
     inkscape:label="Colorize"
     id="filter270"
     x="0"
     y="0"
     width="1"
     height="1"><feColorMatrix
       type="hueRotate"
       values="180"
       result="color1"
       id="feColorMatrix266" /><feColorMatrix
       values="-1 0 0 0 1 0 -1 0 0 1 0 0 -1 0 1 -0.21 -0.72 -0.07 2 0 "
       result="fbSourceGraphic"
       id="feColorMatrix268" /><feColorMatrix
       result="fbSourceGraphicAlpha"
       in="fbSourceGraphic"
       values="0 0 0 -1 0 0 0 0 -1 0 0 0 0 -1 0 0 0 0 1 0"
       id="feColorMatrix272" /><feComposite
       in2="fbSourceGraphic"
       id="feComposite274"
       operator="arithmetic"
       k1="0"
       k2="6.4541"
       result="composite1"
       in="fbSourceGraphic" /><feColorMatrix
       id="feColorMatrix276"
       in="composite1"
       values="1"
       type="saturate"
       result="colormatrix1" /><feFlood
       id="feFlood278"
       flood-opacity="1"
       flood-color="rgb(40,84,48)"
       result="flood1" /><feBlend
       in2="colormatrix1"
       id="feBlend280"
       in="flood1"
       mode="multiply"
       result="blend1" /><feBlend
       in2="blend1"
       id="feBlend282"
       mode="screen"
       result="blend2" /><feColorMatrix
       id="feColorMatrix284"
       in="blend2"
       values="1"
       type="saturate"
       result="colormatrix2" /><feComposite
       in2="fbSourceGraphic"
       id="feComposite286"
       in="colormatrix2"
       operator="in"
       k2="1"
       result="composite2" /></filter></defs><sodipodi:namedview
   id="namedview262"
   pagecolor="#ffffff"
   bordercolor="#000000"
   borderopacity="0.25"
   inkscape:showpageshadow="2"
   inkscape:pageopacity="0.0"
   inkscape:pagecheckerboard="0"
   inkscape:deskcolor="#d1d1d1"
   showgrid="false"
   inkscape:zoom="1.1145686"
   inkscape:cx="364.2665"
   inkscape:cy="356.64023"
   inkscape:window-width="1920"
   inkscape:window-height="1016"
   inkscape:window-x="0"
   inkscape:window-y="0"
   inkscape:window-maximized="1"
   inkscape:current-layer="svg260" />
    <g
   transform="matrix(1,0,0,1,-8351,-319)"
   id="g258"
   style="filter:url(#filter270)">
        <g
   transform="matrix(2.06957,0,0,1,-6139.49,0)"
   id="g256">
            <rect
   id="Artboard3"
   x="5757.28"
   y="0"
   width="1832.95"
   height="2480.32"
   style="fill:none;" />
            <g
   id="Artboard31"
   serif:id="Artboard3">
                <g
   transform="matrix(0.483192,0,0,1,2966.55,0)"
   id="g253">
                    <path
   d="M8865.83,556.439C8939.77,512.223 9007.13,484.92 9014.71,497.876C8985.33,525.372 8930.67,562.698 8886.06,590.899L8886.02,590.924L8885.88,591.011L8884.72,591.742L8884.28,592.023L8884.1,592.135L8883.86,592.287L8883.2,592.703L8882.45,593.175L8882.19,593.335L8882.04,593.43L8881.68,593.657L8880.36,594.485L8880.29,594.53C8879.69,594.907 8879.09,595.282 8878.49,595.657L8878.43,595.697L8878.22,595.828L8877.19,596.47L8876.76,596.736L8876.56,596.859L8876.31,597.017L8875.71,597.391L8874.98,597.846L8874.72,598.008L8874.57,598.099C8858.34,608.186 8844.01,616.706 8833.57,622.605C8803.07,639.82 8773.33,652.456 8744.22,661.257C8742.09,661.891 8740.48,663.518 8739.81,665.534C8739.93,666.524 8739.99,667.532 8739.99,668.554C8739.99,678.897 8733.44,687.721 8724.27,691.102C8723.09,692.601 8722.59,694.582 8723,696.542C8732.69,742.873 8737.71,793.041 8739.09,838.566C8739.14,840.057 8739.18,841.543 8739.22,843.023L8739.22,843.062L8739.22,843.108C8739.26,844.562 8739.29,846.01 8739.32,847.462L8739.32,847.524L8739.32,847.6C8739.35,849.041 8739.38,850.475 8739.4,851.897L8739.4,851.952L8739.4,852.022C8739.42,853.47 8739.44,854.912 8739.45,856.343C8740.2,931.303 8730.84,989.611 8716.45,989.691C8707.73,952.247 8702.23,899.84 8699.57,855.055L8699.55,854.819L8699.53,854.501L8699.5,853.849L8699.44,852.869L8699.42,852.552L8699.41,852.426C8699.38,851.761 8699.34,851.097 8699.3,850.436L8699.29,850.298L8699.28,849.978L8699.23,849.054L8699.19,848.366L8699.17,848.058L8699.16,847.849C8699.12,847.177 8699.09,846.506 8699.05,845.835L8698.98,844.326L8698.95,843.809L8698.94,843.625L8698.93,843.422C8697.96,823.98 8697.56,806.469 8697.68,792.953C8698.02,757.915 8701.96,725.82 8708.9,696.192C8709.31,694.474 8709.01,692.721 8708.16,691.275C8698.73,688.031 8691.95,679.078 8691.95,668.554C8691.95,666.682 8692.16,664.86 8692.57,663.111C8691.77,661.751 8690.49,660.683 8688.91,660.167C8561.2,618.12 8411.41,518.712 8423.28,497.876C8461.87,509.595 8519.95,537.311 8565.6,561.204L8565.7,561.256L8565.85,561.332L8566.67,561.76L8567.56,562.227L8567.7,562.301L8567.78,562.345C8569.06,563.018 8570.33,563.687 8571.59,564.353L8571.63,564.374L8571.74,564.431L8572.83,565.008L8573.4,565.31L8573.57,565.401L8573.76,565.498L8574.35,565.811L8575.29,566.314L8575.5,566.423L8575.59,566.47C8576.19,566.793 8576.8,567.116 8577.4,567.438C8593.71,576.142 8607.85,584.053 8618.1,590.104C8648.26,607.905 8674.07,627.344 8696.25,648.155C8697.5,649.338 8699.12,649.957 8700.75,649.974C8704.9,646.574 8710.2,644.532 8715.97,644.532C8722.03,644.532 8727.56,646.777 8731.79,650.479C8733.79,650.865 8735.91,650.321 8737.5,648.895C8771.76,618.297 8813.52,588.576 8854.17,563.516L8854.32,563.423L8854.47,563.332L8855,563.007L8856.16,562.292L8856.22,562.255L8856.24,562.244C8856.84,561.877 8857.43,561.512 8858.03,561.149L8858.12,561.094L8858.33,560.968L8859.18,560.451L8859.78,560.08L8860.02,559.94L8860.19,559.835C8861.35,559.133 8862.5,558.435 8863.65,557.744L8863.8,557.652L8864.05,557.501L8864.73,557.095L8865.45,556.666L8865.69,556.519L8865.83,556.439ZM8539,601.751C8544.11,604.616 8549.3,607.47 8554.57,610.304C8548,628.499 8544.41,648.111 8544.41,668.554C8544.41,754.492 8607.74,825.756 8690.23,838.192C8690.49,844.006 8690.81,850.018 8691.18,856.169C8682.05,854.961 8672.97,853.082 8664.04,850.532C8664.04,850.532 8661.03,858.583 8658.18,866.18C8649.16,890.248 8649.8,916.873 8659.95,940.483C8659.95,940.484 8659.96,940.485 8659.96,940.487C8659.1,940.309 8657.96,940.032 8656.61,939.674C8644.27,936.912 8633.71,929.003 8627.59,917.943C8621.47,906.884 8620.38,893.734 8624.59,881.816C8631.78,861.374 8638.85,841.362 8638.85,841.362C8606.61,826.964 8579.04,803.83 8559.26,774.577C8559.26,774.577 8551.77,778.805 8544.71,782.794C8522.33,795.434 8505.7,816.238 8498.31,840.856C8498.31,840.857 8498.31,840.858 8498.31,840.859C8497.76,840.171 8497.07,839.228 8496.26,838.084C8488.59,828.04 8485.58,815.192 8488,802.785C8490.42,790.379 8498.04,779.602 8508.92,773.178C8527.58,762.144 8545.85,751.358 8545.85,751.358C8530.41,719.603 8524.16,684.16 8527.81,649.038C8527.81,649.038 8519.36,647.465 8511.38,645.98C8486.11,641.276 8460,646.526 8438.52,660.631C8438.51,660.632 8438.51,660.632 8438.51,660.633C8438.54,659.756 8438.61,658.589 8438.73,657.194C8439.31,644.568 8445.26,632.792 8455.09,624.844C8464.92,616.896 8477.68,613.535 8490.15,615.611C8511.53,619.148 8532.47,622.634 8532.47,622.634C8534.25,615.53 8536.43,608.558 8539,601.751ZM8509.6,909.49C8514.43,913.628 8519.39,917.62 8524.47,921.459C8547.95,894.857 8570.18,867.248 8591.16,838.632C8586.02,834.868 8581.06,830.875 8576.29,826.663C8552.81,853.265 8530.58,880.874 8509.6,909.49ZM8891.34,597.544C8894.63,605.68 8897.37,614.06 8899.52,622.634C8899.52,622.634 8908,621.222 8916,619.889C8941.36,615.667 8964.1,601.803 8979.46,581.199C8979.46,581.199 8979.47,581.198 8979.47,581.197C8979.74,582.029 8980.07,583.152 8980.44,584.503C8984.21,596.566 8982.64,609.668 8976.13,620.498C8969.61,631.329 8958.77,638.851 8946.34,641.165C8925.04,645.154 8904.18,649.038 8904.18,649.038C8907.83,684.16 8901.58,719.603 8886.13,751.358C8886.13,751.358 8893.54,755.727 8900.52,759.851C8922.66,772.914 8948.99,776.91 8974.01,771.004C8974.01,771.005 8974.01,771.004 8974.01,771.004C8973.69,771.819 8973.22,772.89 8972.63,774.16C8967.77,785.828 8958.14,794.857 8946.19,798.964C8934.24,803.072 8921.1,801.865 8910.09,795.65C8891.21,785.014 8872.73,774.577 8872.73,774.577C8852.95,803.83 8825.38,826.964 8793.14,841.362C8793.14,841.362 8796,849.468 8798.7,857.118C8807.26,881.354 8824.86,901.341 8847.82,912.896C8847.83,912.898 8847.83,912.898 8847.83,912.899C8847.06,913.315 8846.01,913.833 8844.74,914.428C8833.52,920.241 8820.34,920.972 8808.54,916.434C8796.75,911.897 8787.45,902.526 8783.02,890.69C8775.39,870.406 8767.94,850.532 8767.94,850.532C8761.3,852.428 8754.58,853.954 8747.82,855.108C8747.75,849.241 8747.63,843.276 8747.44,837.229C8827.12,822.434 8887.53,752.494 8887.53,668.554C8887.53,646.88 8883.5,626.14 8876.16,607.048C8881.05,604.021 8886.13,600.843 8891.34,597.544ZM8917.29,913.508C8922.2,909.466 8926.99,905.278 8931.66,900.948C8909.53,873.204 8886.2,846.517 8861.67,820.886C8857.07,825.288 8852.27,829.479 8847.3,833.447C8869.42,861.191 8892.75,887.878 8917.29,913.508ZM8586.31,626.648C8590.7,628.811 8595.13,630.948 8599.58,633.053C8600.42,634.906 8601.35,636.783 8602.36,638.681C8606.22,645.907 8611.31,653.342 8617.48,660.807C8621.72,656.277 8626.31,651.761 8631.24,647.297C8634.74,648.787 8638.24,650.249 8641.74,651.682C8635.36,657.233 8629.51,662.884 8624.27,668.554C8631.61,676.491 8640.13,684.388 8649.64,692.03C8649.08,684.391 8648.79,676.547 8648.79,668.554C8648.79,663.863 8648.89,659.223 8649.09,654.645C8652.47,655.99 8655.85,657.305 8659.23,658.588C8659.13,661.88 8659.08,665.204 8659.08,668.554C8659.08,679.528 8659.64,690.212 8660.7,700.463C8669.05,706.511 8678.02,712.339 8687.52,717.826C8690.07,719.293 8692.61,720.715 8695.15,722.092C8694.57,725.656 8694.03,729.253 8693.53,732.882C8689.81,730.927 8686.09,728.877 8682.38,726.733C8675.46,722.737 8668.81,718.562 8662.48,714.257C8664.34,726.321 8666.92,737.645 8670.12,747.973C8677.32,746.339 8684.78,744.223 8692.41,741.636C8691.98,745.325 8691.59,749.048 8691.24,752.808C8685.18,754.736 8679.23,756.376 8673.43,757.725C8676.81,766.803 8680.71,774.924 8685.04,781.878C8686.42,784.106 8687.85,786.213 8689.3,788.183C8689.27,789.737 8689.25,791.301 8689.23,792.871C8689.2,796.215 8689.2,799.8 8689.24,803.59C8679.02,793.858 8670.11,778.715 8663.28,759.816C8627.64,766.181 8599.19,760.625 8588.52,742.14C8577.84,723.654 8587.26,696.242 8610.59,668.554C8598.41,654.101 8590.02,639.723 8586.31,626.648ZM8846.03,625.194C8842.54,638.649 8833.99,653.561 8821.35,668.554C8844.69,696.242 8854.1,723.654 8843.43,742.14C8832.75,760.625 8804.31,766.181 8768.66,759.816C8762.48,776.924 8754.59,790.954 8745.58,800.679C8745.22,795.718 8744.83,790.732 8744.39,785.728C8745.24,784.489 8746.08,783.205 8746.9,781.878C8751.23,774.924 8755.13,766.803 8758.51,757.725C8752.77,756.391 8746.88,754.77 8740.88,752.867C8740.41,749.103 8739.91,745.341 8739.38,741.585C8747.06,744.194 8754.57,746.328 8761.82,747.973C8765.02,737.644 8767.61,726.32 8769.47,714.257C8763.13,718.562 8756.48,722.737 8749.56,726.733C8745.75,728.932 8741.94,731.032 8738.13,733.032C8737.58,729.441 8737.01,725.861 8736.42,722.293C8739.09,720.853 8741.75,719.364 8744.42,717.826C8753.92,712.339 8762.9,706.511 8771.24,700.463C8772.31,690.212 8772.86,679.528 8772.86,668.554C8772.86,665.849 8772.83,663.162 8772.76,660.494C8776.14,659.222 8779.53,657.898 8782.93,656.521C8783.08,660.489 8783.15,664.503 8783.15,668.554C8783.15,676.547 8782.86,684.391 8782.3,692.03C8791.82,684.387 8800.33,676.49 8807.68,668.554C8802.81,663.298 8797.44,658.06 8791.59,652.901C8795,651.435 8798.42,649.914 8801.84,648.338C8806.34,652.462 8810.55,656.628 8814.46,660.807C8820.64,653.342 8825.72,645.907 8829.58,638.681C8830.62,636.734 8831.57,634.809 8832.43,632.908C8834.19,631.942 8835.95,630.961 8837.72,629.965C8840.27,628.525 8843.05,626.929 8846.03,625.194ZM8814.46,676.301C8820.64,683.766 8825.72,691.201 8829.58,698.427C8837.48,713.219 8840.43,726.761 8834.52,736.997C8828.61,747.233 8815.4,751.448 8798.65,752.005C8790.46,752.277 8781.48,751.591 8771.93,749.978C8775.96,736.694 8779.04,721.9 8780.94,706.066C8793.71,696.5 8804.98,686.436 8814.46,676.301ZM8617.48,676.301C8626.96,686.439 8638.24,696.502 8651,706.066C8652.9,721.904 8655.98,736.701 8660.02,749.978C8650.47,751.591 8641.48,752.277 8633.3,752.005C8616.54,751.448 8603.34,747.233 8597.42,736.997C8591.51,726.761 8594.47,713.219 8602.36,698.427C8606.22,691.201 8611.31,683.766 8617.48,676.301ZM8402.99,720.558C8404.03,726.835 8405.26,733.079 8406.68,739.282C8441.77,733.997 8476.55,727.137 8511.01,718.701C8509.5,712.518 8508.27,706.271 8507.32,699.977C8472.23,705.262 8437.45,712.123 8402.99,720.558ZM9027.6,726.714C9028.77,720.459 9029.75,714.17 9030.53,707.856C8995.76,700.822 8960.73,695.374 8925.46,691.513C8924.76,697.84 8923.79,704.133 8922.52,710.371C8957.3,717.405 8992.33,722.853 9027.6,726.714ZM8715.97,654.949C8723.48,654.949 8729.58,661.045 8729.58,668.554C8729.58,676.063 8723.48,682.159 8715.97,682.159C8708.46,682.159 8702.37,676.063 8702.37,668.554C8702.37,661.045 8708.46,654.949 8715.97,654.949ZM8613.38,577.6C8626.79,573.894 8643.98,573.846 8663.28,577.292C8675.59,543.239 8694.63,521.383 8715.97,521.383C8737.32,521.383 8756.35,543.239 8768.66,577.292C8787.34,573.956 8804.05,573.895 8817.26,577.254C8813.2,579.974 8809.15,582.731 8805.11,585.523C8803.03,585.315 8800.87,585.177 8798.65,585.103C8790.46,584.831 8781.48,585.517 8771.93,587.13C8773.75,593.112 8775.37,599.401 8776.78,605.957C8773.74,608.245 8770.72,610.548 8767.73,612.865C8766.11,604.504 8764.13,596.562 8761.82,589.135C8751.28,591.527 8740.18,594.954 8728.81,599.375C8735.7,602.709 8742.64,606.379 8749.56,610.375C8753.67,612.748 8757.68,615.183 8761.59,617.671C8758.73,619.931 8755.91,622.203 8753.11,624.486C8750.26,622.72 8747.37,620.985 8744.42,619.282C8734.92,613.796 8725.38,608.939 8715.97,604.736C8706.56,608.939 8697.03,613.796 8687.52,619.282C8685.22,620.611 8682.95,621.959 8680.72,623.327C8677.92,621.038 8675.07,618.768 8672.17,616.519C8675.5,614.431 8678.91,612.381 8682.38,610.375C8689.3,606.379 8696.24,602.709 8703.14,599.375C8691.76,594.954 8680.66,591.527 8670.12,589.135C8668.01,595.944 8666.17,603.185 8664.63,610.785C8661.65,608.575 8658.62,606.384 8655.55,604.214C8656.86,598.288 8658.36,592.582 8660.02,587.13C8650.47,585.517 8641.48,584.831 8633.3,585.103C8631.1,585.176 8628.97,585.312 8626.9,585.516C8625.41,584.615 8623.91,583.718 8622.4,582.826C8619.66,581.208 8616.64,579.459 8613.38,577.6ZM8758.51,579.383C8744.99,582.529 8730.64,587.26 8715.97,593.529C8701.3,587.258 8686.95,582.526 8673.43,579.383C8676.81,570.305 8680.71,562.184 8685.04,555.23C8693.9,540.996 8704.15,531.668 8715.97,531.668C8727.79,531.668 8738.04,540.996 8746.9,555.23C8751.23,562.184 8755.13,570.305 8758.51,579.383ZM8566.77,552.295C8572.17,545.368 8578.06,538.805 8584.42,532.655C8584.42,532.655 8578.95,526.017 8573.8,519.753C8557.46,499.906 8534.09,487.145 8508.56,484.139C8508.56,484.138 8508.56,484.138 8508.56,484.138C8509.14,483.483 8509.95,482.638 8510.93,481.645C8519.49,472.343 8531.62,467.151 8544.26,467.38C8556.9,467.608 8568.84,473.236 8577.05,482.841C8591.16,499.294 8604.95,515.421 8604.95,515.421C8633.55,494.697 8667.36,482.388 8702.59,479.886C8702.59,479.886 8702.67,471.289 8702.75,463.176C8702.99,437.474 8693.29,412.673 8675.66,393.962C8675.66,393.96 8675.66,393.959 8675.66,393.958C8676.53,393.831 8677.69,393.703 8679.09,393.577C8691.62,391.953 8704.25,395.773 8713.79,404.072C8723.32,412.371 8728.85,424.354 8728.97,436.993C8729.2,458.663 8729.4,479.886 8729.4,479.886C8764.62,482.388 8798.44,494.697 8827.03,515.421C8827.03,515.421 8832.62,508.888 8837.89,502.723C8854.6,483.191 8863.11,457.955 8861.64,432.294C8861.64,432.292 8861.64,432.291 8861.64,432.29C8862.39,432.75 8863.36,433.399 8864.51,434.199C8875.15,441.012 8882.37,452.058 8884.34,464.543C8886.31,477.029 8882.84,489.76 8874.81,499.52C8861.06,516.268 8847.57,532.655 8847.57,532.655C8852.83,537.741 8857.76,543.111 8862.37,548.731C8857.31,551.746 8852.22,554.839 8847.12,558C8815.64,520.698 8768.55,496.994 8715.97,496.994C8662.15,496.994 8614.09,521.83 8582.62,560.656C8577.54,557.938 8572.24,555.14 8566.77,552.295ZM8610.31,369.5C8604.31,371.617 8598.38,373.915 8592.51,376.389C8603.81,410.025 8616.61,443.082 8630.9,475.559C8636.72,472.996 8642.66,470.697 8648.7,468.67C8637.4,435.034 8624.6,401.977 8610.31,369.5ZM8827.24,371.638C8821.28,369.403 8815.26,367.347 8809.18,365.475C8796.21,398.504 8784.76,432.051 8774.83,466.117C8780.94,467.898 8786.97,469.954 8792.9,472.28C8805.86,439.251 8817.31,405.704 8827.24,371.638Z"
   id="path251" />
                </g>
            </g>
        </g>
    </g>
<path
   style="fill:#008000;stroke-width:0.897208"
   d="m 165.95838,596.56535 c -3.68716,-3.00372 -6.86194,-5.61783 -7.05506,-5.80914 -1.08506,-1.07491 38.45783,-51.04941 59.94498,-75.75875 3.21836,-3.70098 5.92914,-6.8625 6.02395,-7.02559 0.24937,-0.42898 14.17818,10.69557 14.52471,11.60049 0.8279,2.16197 -63.52354,82.45429 -66.08418,82.45429 -0.35775,0 -3.66723,-2.45759 -7.3544,-5.4613 z"
   id="path195" /><path
   style="fill:#285430;stroke-width:0.897208;fill-opacity:1"
   d="m 166.11789,596.05388 c -3.52816,-2.79155 -6.41484,-5.37801 -6.41484,-5.74769 0,-1.72455 27.29229,-36.55347 48.39255,-61.75591 7.18641,-8.58355 13.92534,-16.64461 14.9754,-17.91347 l 1.90919,-2.30702 4.81987,3.78878 c 7.19391,5.65494 8.8573,7.13464 8.8573,7.87917 0,2.92185 -63.03954,81.1317 -65.39464,81.1317 -0.40149,0 -3.61666,-2.284 -7.14483,-5.07556 z"
   id="path197" /><path
   style="fill:#285430;fill-opacity:1;stroke-width:0.897208"
   d="m 462.16296,598.81415 c -7.76156,-2.08734 -14.96938,-6.4663 -20.66421,-12.55409 -6.26527,-6.69759 -7.63278,-9.46538 -16.9578,-34.32196 -3.94818,-10.52419 -7.38928,-19.34565 -7.64688,-19.60326 -0.25761,-0.2576 -4.07836,0.37915 -8.49057,1.41503 -12.614,2.96141 -11.83751,3.41887 -11.83751,-6.97403 v -8.85741 l 3.79669,-0.60712 c 2.08818,-0.33392 7.43779,-1.64805 11.88801,-2.92031 32.36852,-9.25368 62.6665,-29.03101 84.42709,-55.11066 37.57371,-45.03137 49.54551,-106.97651 31.41512,-162.54976 l -2.86075,-8.76878 6.39783,-3.9876 c 9.79656,-6.10592 8.68183,-6.71674 13.11028,7.18383 l 3.90251,12.24969 4.48604,-0.56917 c 7.8167,-0.99174 22.00348,-4.07908 27.69986,-6.02806 16.59524,-5.67795 34.31477,-17.9717 44.86222,-31.12524 1.3357,-1.66573 2.62354,-2.8336 2.86186,-2.59527 0.23834,0.23833 1.0653,3.41804 1.83772,7.06602 3.20581,15.14058 -1.84325,30.31077 -13.69274,41.14052 -8.19054,7.4857 -13.21966,9.30305 -39.42973,14.24856 l -23.24198,4.38548 0.26134,10.61535 c 0.71114,28.88542 -5.07399,59.96652 -15.63056,83.9765 -1.66295,3.78224 -3.01237,7.21513 -2.99872,7.62865 0.036,1.08842 20.02864,12.28948 26.89141,15.06613 17.41303,7.04525 37.307,9.13757 55.09922,5.795 2.42383,-0.45536 4.58232,-0.65257 4.79666,-0.43823 0.21432,0.21433 -0.96132,2.92547 -2.61255,6.02476 -11.17475,20.97447 -36.40288,29.40358 -57.73193,19.28911 -3.45425,-1.63804 -13.90335,-7.31008 -23.22021,-12.60453 -9.31686,-5.29444 -17.22882,-9.2954 -17.58213,-8.89102 -0.35332,0.40439 -3.20173,4.16708 -6.32981,8.36153 -3.12809,4.19444 -10.55838,12.49723 -16.51178,18.45062 -15.16814,15.16813 -28.26236,24.83195 -46.71267,34.47497 -4.93465,2.57907 -9.0859,4.79316 -9.22502,4.92018 -0.46958,0.42877 6.80511,20.03276 9.63115,25.95419 7.10503,14.88725 19.89148,29.49269 34.19629,39.06102 4.4729,2.99188 8.50985,5.43978 8.97097,5.43978 3.83669,0 -4.20926,4.11037 -12.17111,6.21775 -4.98005,1.31814 -15.20908,1.0948 -20.98361,-0.45817 z"
   id="path2545" /><path
   style="fill:#285430;fill-opacity:1;stroke-width:0.897208"
   d="m 363.9188,663.70971 c -10.94698,-49.96905 -19.20442,-151.17368 -16.72996,-205.04524 1.26958,-27.63994 3.20654,-44.0204 8.21733,-69.49216 1.52802,-7.7675 2.55139,-14.71383 2.27416,-15.4363 -0.27724,-0.72246 -2.09534,-2.12537 -4.04021,-3.11758 -7.77648,-3.96725 -13.31602,-13.99136 -12.4889,-22.59935 0.27079,-2.81817 0.0322,-4.7105 -0.66713,-5.29088 -0.59878,-0.49695 -7.70595,-3.26903 -15.79369,-6.16019 -61.3423,-21.92826 -129.43041,-56.27273 -186.07175,-93.85686 -41.696179,-27.66733 -66.645462,-50.37499 -66.804393,-60.8022 -0.02325,-1.52533 0.438135,-2.46733 1.208474,-2.46733 3.58756,0 32.442449,11.02244 57.072449,21.80141 37.00496,16.19471 94.56156,45.36284 130.99238,66.38341 28.78605,16.60954 55.34979,35.58451 76.26269,54.47586 10.50612,9.49054 10.736,9.58681 15.80156,6.61819 3.12034,-1.82863 5.68987,-2.5165 10.53663,-2.82065 5.98584,-0.37563 6.81338,-0.19118 12.5084,2.78805 3.62085,1.89417 6.7192,2.96246 7.62627,2.6295 0.84028,-0.30844 5.76709,-4.18912 10.94846,-8.62372 24.35404,-20.84399 48.16163,-38.61152 80.74873,-60.26254 62.47357,-41.50772 130.46391,-76.16443 166.43211,-84.83542 11.13828,-2.68515 21.18531,-2.1098 21.03495,1.20458 -0.0577,1.27071 -13.89641,13.16817 -28.66122,24.64063 -31.48025,24.46058 -83.26656,59.24779 -130.09518,87.39084 -39.02868,23.45544 -67.67315,37.10229 -101.38451,48.30178 -6.16831,2.04922 -11.79124,4.28808 -12.49539,4.97524 -0.72647,0.70894 -1.41177,3.49546 -1.58425,6.44181 -0.55281,9.44346 -3.64976,13.99816 -14.96748,22.01278 -2.21138,1.56597 -2.14196,2.60158 1.54881,23.10541 5.3472,29.70609 8.79574,58.28728 11.52918,95.55267 1.67222,22.79788 1.39108,90.17981 -0.45714,109.56114 -3.58579,37.60229 -8.8494,59.64631 -16.09675,67.41316 -3.43301,3.67911 -4.83025,2.70043 -6.40463,-4.48604 z m 4.98423,-301.26443 c 4.09749,-1.13807 8.53542,-6.05884 9.34202,-10.35845 1.76736,-9.42082 -6.92349,-17.73084 -16.3257,-15.6103 -1.89344,0.42704 -4.68752,2.10645 -6.46981,3.88873 -2.63763,2.63763 -3.19417,3.89723 -3.49572,7.91161 -0.47475,6.32033 1.67892,10.36487 6.96162,13.0737 4.44356,2.27854 5.36269,2.37928 9.98759,1.09471 z"
   id="path2547" /><path
   style="fill:#285430;fill-opacity:1;stroke-width:0.897208"
   d="m 301.00161,619.25415 c -6.96639,-2.40891 -12.08398,-5.78722 -17.72124,-11.69838 -8.83472,-9.26402 -13.2784,-22.04793 -11.93204,-34.32703 0.3952,-3.60439 3.5615,-14.1012 8.49874,-28.17481 l 7.86888,-22.4302 -8.97829,-4.71315 c -26.45433,-13.88721 -48.18515,-32.24044 -65.064,-54.95119 -2.75062,-3.70098 -5.09159,-6.8707 -5.20217,-7.04382 -0.34643,-0.54236 -16.6142,8.86789 -23.3627,13.51439 -7.79915,5.36989 -20.00889,17.86478 -25.23948,25.82892 -4.39522,6.69222 -9.31753,16.65092 -10.97575,22.2059 -0.62604,2.09723 -1.38362,3.81314 -1.68352,3.81314 -1.11123,0 -6.61954,-9.35248 -8.38613,-14.23868 -2.57576,-7.12427 -3.09296,-18.96227 -1.12611,-25.77526 4.42417,-15.32497 10.175,-21.07338 37.03348,-37.01787 10.97959,-6.51802 19.96288,-11.98264 19.96288,-12.14362 0,-0.16097 -1.37441,-3.27667 -3.05425,-6.92379 -10.58834,-22.98844 -16.48748,-53.86644 -15.59615,-81.63531 0.37467,-11.67269 0.24944,-13.39033 -1.00293,-13.75603 -0.78708,-0.22983 -6.27598,-1.28806 -12.19756,-2.35162 -13.82759,-2.48354 -33.7147,-2.13307 -44.58952,0.78579 -8.84971,2.37531 -19.727919,6.73312 -25.181886,10.08786 -2.351369,1.44634 -4.471023,2.6297 -4.710343,2.6297 -0.920965,0 -0.37319,-7.03845 0.940213,-12.08095 3.92392,-15.06494 16.372336,-27.33285 31.939276,-31.47614 7.38206,-1.96481 12.84407,-1.61613 36.99081,2.36136 12.26763,2.02075 22.60138,3.33503 22.96388,2.92063 0.3625,-0.4144 1.94761,-4.89183 3.52247,-9.94984 1.57485,-5.05801 3.28782,-9.19638 3.80657,-9.19638 0.90177,0 11.82484,5.76137 13.88751,7.32496 0.69705,0.5284 0.12869,3.59703 -1.9253,10.3948 -5.28176,17.48022 -6.24468,25.11089 -6.19877,49.12224 0.0379,19.81852 0.23139,22.42748 2.43025,32.76726 10.19904,47.95937 38.14035,87.70944 79.62167,113.27194 14.82686,9.13692 36.50937,17.64049 53.83249,21.11233 l 8.52348,1.70823 0.6064,3.94513 c 0.33352,2.16981 0.63633,6.20552 0.67291,8.96823 l 0.0665,5.02313 -5.15895,-0.79839 c -2.83742,-0.43911 -8.72985,-1.63183 -13.0943,-2.65046 -4.37679,-1.02152 -8.26961,-1.50786 -8.68074,-1.0845 -1.17793,1.21297 -7.60962,19.00128 -9.23043,25.52885 -4.61205,18.57433 -3.75903,37.97754 2.47545,56.30765 2.50725,7.37162 2.39388,7.4732 -5.3513,4.79498 z"
   id="path2549" /><path
   style="fill:#285430;fill-opacity:1;stroke-width:0.897208"
   d="m 55.297837,418.32329 c -0.933263,-3.25638 -3.396081,-16.53445 -3.109866,-16.76657 0.646523,-0.52435 34.455204,-8.00176 50.990959,-11.27759 22.96688,-4.54987 51.00492,-9.21042 52.33116,-8.69861 0.90881,0.35072 4.68875,17.51327 3.99789,18.15215 -1.37391,1.27053 -58.52607,13.05044 -84.822046,17.48307 -18.620101,3.13874 -18.802972,3.14919 -19.388097,1.10755 z"
   id="path2551" /><path
   style="fill:#285430;fill-opacity:1;stroke-width:0.897208"
   d="m 223.85343,237.61044 c -3.94772,-2.00686 -7.33491,-3.79254 -7.52709,-3.96817 -0.56679,-0.51797 4.36834,-6.62239 10.99059,-13.59459 l 6.17125,-6.49735 -8.78424,-10.41084 c -17.71051,-20.98996 -36.39277,-32.23172 -61.84926,-37.21685 l -5.37185,-1.05196 4.92324,-4.52816 c 13.05267,-12.00522 32.55724,-15.15452 48.30072,-7.79888 8.49073,3.96703 11.26264,6.5449 27.922,25.96747 l 15.25333,17.78332 7.41586,-4.87987 c 14.65403,-9.64284 35.13716,-18.92709 53.17347,-24.10159 8.91113,-2.55655 26.60046,-5.80779 31.71574,-5.82925 5.8753,-0.0246 5.81778,0.16704 5.28469,-17.611 -0.39447,-13.15494 -0.88403,-17.56671 -2.73695,-24.66449 -3.73595,-14.31093 -9.96508,-26.937515 -18.59257,-37.687566 -2.4507,-3.053629 -4.45581,-5.889629 -4.45581,-6.302221 0,-0.412593 3.35854,-0.750169 7.46342,-0.750169 12.87019,0 22.84713,4.079949 31.54807,12.901202 11.1488,11.302973 12.67076,16.833394 13.48582,49.003994 0.36364,14.35313 0.96106,23.99556 1.5076,24.33335 0.49791,0.30772 3.80165,0.82195 7.34166,1.14274 25.18307,2.28203 57.64196,13.95144 80.97949,29.11324 l 8.19346,5.32307 7.57827,-9.09502 c 9.81669,-11.78143 12.59015,-15.94528 17.43926,-26.18186 5.51106,-11.63395 8.44329,-23.47132 9.04669,-36.52136 0.2681,-5.79821 0.66209,-10.5422 0.87554,-10.5422 0.21345,0 2.13304,1.20055 4.26575,2.66789 14.21261,9.77854 21.44829,29.31977 17.07437,46.11237 -2.30085,8.83358 -5.48008,13.93697 -18.51794,29.72545 -6.92739,8.3889 -13.60902,16.55678 -14.84805,18.15085 l -2.25278,2.89833 6.80802,7.41957 c 3.7444,4.08077 6.81436,7.88588 6.82211,8.45582 0.008,0.56993 -3.23815,2.94291 -7.21314,5.27328 l -7.22726,4.23706 -6.16409,-6.68965 c -13.1641,-14.28647 -31.41288,-27.72964 -49.73421,-36.63728 -50.79659,-24.69675 -109.3043,-23.14116 -158.63846,4.21786 -13.72397,7.61084 -24.00688,15.52199 -37.40318,28.77611 -7.11323,7.03774 -12.96751,12.77571 -13.00951,12.75104 -0.042,-0.0247 -3.30632,-1.68683 -7.25403,-3.69369 z"
   id="path2553" /><path
   style="fill:#285430;fill-opacity:1;stroke-width:0.897208"
   d="m 278.61553,153.48527 c -4.53195,-8.76383 -23.41649,-56.761612 -32.42354,-82.409101 l -4.81476,-13.71 2.00459,-0.783671 c 1.10253,-0.43102 5.14166,-2.001363 8.97584,-3.489651 l 6.97124,-2.70598 1.40532,3.292924 c 6.34537,14.8684 13.94171,33.385157 18.46624,45.013102 5.85226,15.040197 6.20341,15.993457 13.58612,36.881717 l 4.94916,14.00291 -7.78189,2.94499 c -4.28004,1.61975 -8.25928,3.12323 -8.84276,3.34107 -0.58348,0.21784 -1.70648,-0.8524 -2.49556,-2.37831 z"
   id="path2555" /><path
   style="fill:#285430;fill-opacity:1;stroke-width:0.897208"
   d="m 433.40731,150.32739 c -4.65723,-1.5678 -8.62197,-3.31338 -8.81054,-3.87908 -0.72156,-2.16467 15.95749,-53.260984 27.15687,-83.195137 3.32319,-8.882361 6.16901,-16.292367 6.32404,-16.46668 0.31198,-0.350794 14.33435,4.151349 16.67848,5.354936 1.32268,0.67913 1.01944,2.253577 -2.87129,14.907616 -7.63585,24.834518 -28.52094,84.965695 -29.87934,86.026915 -0.0718,0.0561 -3.94099,-1.18077 -8.59822,-2.74857 z"
   id="path2557" /><path
   style="fill:#285430;fill-opacity:1;stroke-width:0.897208"
   d="m 552.95101,580.26935 c -19.79055,-21.53106 -37.07785,-41.50758 -53.41568,-61.72504 l -3.2966,-4.07941 7.18626,-6.10806 c 8.53512,-7.25455 5.39121,-8.82669 24.79929,12.40113 24.5601,26.86292 52.59571,60.27623 51.73864,61.663 -0.83174,1.34577 -12.93677,11.53081 -13.7045,11.53081 -0.40207,0 -6.3904,-6.15709 -13.30741,-13.68243 z"
   id="path2559" /><path
   style="fill:#285430;fill-opacity:1;stroke-width:0.897208"
   d="m 667.52284,406.72592 c -1.23366,-0.19921 -10.11602,-1.38448 -19.73858,-2.63393 -16.82235,-2.18432 -49.47216,-7.49719 -67.29061,-10.94972 -6.01954,-1.16636 -8.51785,-2.02623 -8.50434,-2.92704 0.0105,-0.70153 0.57196,-5.00583 1.24763,-9.56512 l 1.22848,-8.28961 3.23842,0.44871 c 1.78113,0.24679 8.28521,1.06945 14.45352,1.82813 26.3629,3.24256 85.58375,13.00648 86.90568,14.3284 0.42941,0.42942 -1.34188,13.78934 -2.22694,16.79663 -0.46182,1.56918 -3.57081,1.89083 -9.31326,0.96355 z"
   id="path2561" /><path
   style="fill:#285430;fill-opacity:1;stroke-width:0.897208"
   d="m 394.48663,479.52271 c -0.2893,-0.96766 -0.61259,-4.20607 -0.71841,-7.19646 -0.17486,-4.94099 0.17121,-6.08706 3.79289,-12.56091 4.32853,-7.73734 10.05515,-20.14866 9.53613,-20.66767 -0.17752,-0.17753 -3.93184,-1.36608 -8.34294,-2.64123 -4.41109,-1.27515 -8.27695,-2.59634 -8.59081,-2.93599 -0.31386,-0.33964 -0.84218,-2.89578 -1.17405,-5.6803 l -0.60341,-5.06276 10.56267,3.04404 c 5.80947,1.67423 10.85126,3.04405 11.20398,3.04405 1.28673,0 8.37635,-29.23089 7.75613,-31.97891 -0.16717,-0.74069 -2.47617,0.29025 -6.53889,2.91953 -8.25941,5.34527 -23.75799,14.12712 -24.17307,13.69703 -0.17984,-0.18634 -0.60724,-2.60352 -0.94978,-5.37153 l -0.6228,-5.03272 6.14377,-3.40229 c 9.93505,-5.5018 27.98057,-17.60925 28.58439,-19.17839 0.30642,-0.79627 0.79365,-9.96965 1.08274,-20.38528 l 0.52562,-18.93752 4.39326,-1.57979 c 2.4163,-0.86889 4.67641,-1.29266 5.02246,-0.9417 0.34606,0.35095 0.52344,8.10062 0.39419,17.2215 l -0.23501,16.5834 2.75797,-1.96385 c 1.51689,-1.08012 7.21091,-6.25877 12.65338,-11.50812 l 9.8954,-9.54428 -7.95243,-7.76381 -7.95244,-7.76381 4.87306,-2.38997 4.87306,-2.38997 6.42634,6.38345 6.42634,6.38345 5.30099,-7.17487 c 2.91555,-3.94617 6.9907,-10.28274 9.0559,-14.08126 3.50184,-6.44094 4.18332,-7.14402 10.11166,-10.43202 4.05864,-2.25102 6.34559,-3.09539 6.32587,-2.33558 -0.0612,2.35735 -5.07816,13.88574 -8.84639,20.32785 -2.11588,3.6173 -6.35046,9.89609 -9.41015,13.95287 l -5.56308,7.37595 4.80323,6.23432 c 15.75657,20.45109 23.51054,41.31157 20.83669,56.05692 -2.6609,14.67401 -13.43102,24.94829 -30.54753,29.14117 -10.50656,2.5737 -34.70128,2.64533 -46.879,0.13879 -0.39613,-0.0816 -2.70389,4.26088 -5.12834,9.64981 -4.88383,10.85547 -11.1044,21.59769 -15.62431,26.98142 -2.62936,3.13186 -3.01791,3.32868 -3.48528,1.76544 z m 68.25647,-48.44792 c 29.02733,-6.6681 31.35372,-31.36428 6.26254,-66.48088 -2.58524,-3.6182 -5.05787,-6.58514 -5.49473,-6.59321 -0.43687,-0.008 -5.07992,4.12529 -10.3179,9.18524 -5.23798,5.05994 -12.60836,11.57401 -16.37864,14.4757 l -6.85505,5.2758 -1.56564,10.42183 c -0.8611,5.732 -2.86374,15.60537 -4.45032,21.94082 -1.93566,7.72937 -2.55982,11.64207 -1.89721,11.8931 0.54311,0.20576 4.62117,0.74627 9.06235,1.20113 9.85953,1.00982 24.07601,0.41682 31.6346,-1.31953 z"
   id="path2563" /><path
   style="fill:#285430;fill-opacity:1;stroke-width:0.897208"
   d="m 333.90349,480.07674 c -6.01792,-7.14483 -13.01121,-18.84468 -17.66121,-29.5474 l -4.22682,-9.72869 -4.15526,0.89837 c -2.28539,0.49411 -11.62451,0.93771 -20.7536,0.98578 -14.73982,0.0776 -17.38289,-0.13995 -23.60493,-1.94316 -3.85362,-1.11682 -8.90042,-2.99255 -11.21511,-4.1683 -15.34495,-7.79447 -22.03537,-23.66558 -17.72439,-42.0461 2.1612,-9.21462 10.8841,-26.47975 18.38906,-36.39727 3.82539,-5.0551 6.07432,-8.8016 5.66861,-9.44337 -0.36988,-0.5851 -2.92563,-4.08169 -5.67946,-7.7702 -2.75382,-3.68851 -6.68605,-9.59571 -8.73829,-13.12712 -3.59313,-6.18294 -9.32865,-19.25367 -8.71701,-19.86531 0.16322,-0.16321 3.15866,1.14448 6.65654,2.90598 5.49689,2.76819 6.65762,3.79048 8.55487,7.53453 2.73745,5.40209 12.51774,20.0916 14.43818,21.68542 1.23169,1.02221 2.07055,0.57513 6.09259,-3.24717 2.56533,-2.43792 5.70608,-5.33685 6.97945,-6.44207 l 2.31521,-2.00947 4.63815,1.92753 c 2.55098,1.06014 4.63815,2.25183 4.63815,2.6482 0,0.39638 -2.78158,3.21109 -6.18129,6.25493 -3.39971,3.04384 -7.07559,6.74385 -8.16862,8.22225 l -1.98733,2.688 3.45828,3.573 c 3.56492,3.68318 20.47969,18.67611 21.07048,18.67647 0.18258,1.2e-4 0.1894,-8.28714 0.0152,-18.41613 l -0.3168,-18.41634 4.80285,1.8929 c 2.64156,1.0411 4.90511,1.99501 5.0301,2.11981 0.12499,0.1248 0.44134,7.66119 0.70301,16.74754 0.26167,9.08634 0.76969,18.53713 1.12894,21.00174 0.62739,4.3042 0.90073,4.65251 6.92325,8.82206 3.44854,2.38752 11.06289,7.19124 16.92078,10.67494 l 10.6507,6.33402 -0.58591,4.98514 c -0.32225,2.74184 -0.74427,5.14352 -0.93784,5.33709 -0.44987,0.44986 -18.14191,-9.71854 -25.00574,-14.37192 -2.87546,-1.94942 -5.37215,-3.40036 -5.54821,-3.2243 -0.9055,0.9055 6.32174,31.77646 7.62827,32.58394 0.66464,0.41077 14.67881,-3.15343 19.18271,-4.8787 l 2.57656,-0.98699 -0.38943,5.3837 c -0.21418,2.96103 -0.58949,5.58376 -0.83402,5.82828 -0.24452,0.24454 -4.03254,1.39706 -8.41781,2.56118 -4.38527,1.16412 -8.13114,2.59032 -8.32413,3.16933 -0.4523,1.35689 8.66494,20.33764 12.32265,25.65392 2.67929,3.89423 2.79141,4.4151 2.54344,11.8163 l -0.2594,7.74248 z m -29.8145,-48.41912 c 4.90572,-0.72024 4.84986,0.0922 1.08503,-15.7805 -1.51882,-6.4034 -3.26872,-15.4221 -3.88868,-20.04156 l -1.1272,-8.39902 -9.816,-8.1301 c -5.3988,-4.47156 -12.99529,-11.16759 -16.8811,-14.88007 -8.09405,-7.73301 -6.83011,-7.9698 -14.42763,2.70297 -8.89602,12.49686 -15.89001,29.46366 -15.89001,38.54776 0,4.3051 2.0512,10.79688 4.49658,14.2311 4.59966,6.45963 14.37777,10.91676 27.51458,12.54192 6.11706,0.75674 21.19515,0.34375 28.93443,-0.7925 z"
   id="path2565" /><path
   style="fill:#285430;fill-opacity:1;stroke-width:0.897208"
   d="m 395.22018,301.34693 c -8.62329,-5.04189 -28.86289,-15.13754 -30.3475,-15.13754 -1.64814,0 -17.19086,7.68392 -26.99357,13.34493 -8.78733,5.07463 -8.05488,5.07903 -14.30714,-0.086 l -2.56317,-2.11748 10.38469,-5.79501 c 5.71157,-3.18725 12.67629,-7.05442 15.47713,-8.59372 l 5.09245,-2.79871 -11.11954,-3.6617 c -14.16965,-4.66612 -21.31461,-6.46941 -21.89731,-5.52658 -0.25322,0.40972 -1.58366,5.21497 -2.95653,10.67833 l -2.49614,9.93337 -4.2125,-2.913 c -4.85057,-3.35422 -4.94127,-3.85359 -2.3665,-13.02952 1.02509,-3.65318 1.63457,-6.87137 1.35441,-7.15152 -1.10545,-1.10546 -9.60255,-1.91752 -20.59703,-1.96844 l -11.54698,-0.0535 -6.63045,-3.77245 c -4.21735,-2.39949 -6.2173,-4.00366 -5.49523,-4.40775 1.84406,-1.03199 14.67052,-2.5863 21.34265,-2.5863 3.39919,0 10.13268,0.43087 14.96331,0.95749 4.83063,0.52661 9.49681,1.03129 10.36928,1.12151 1.19023,0.12307 2.32884,-1.62816 4.5601,-7.01364 4.1209,-9.94639 6.32249,-14.12572 11.84814,-22.49159 5.9149,-8.95519 16.17247,-18.80473 23.28894,-22.36253 4.88863,-2.44402 6.17885,-2.6859 14.35721,-2.69162 8.31339,-0.006 9.4213,0.20914 14.80393,2.87225 3.19993,1.5832 8.00855,4.8055 10.68582,7.16065 9.1183,8.02124 19.49342,24.25167 25.29401,39.56897 1.81165,4.78392 2.41594,5.57567 3.96172,5.19072 3.75986,-0.93632 18.14548,-2.29775 24.35442,-2.30484 6.39024,-0.007 19.75214,1.51078 21.20593,2.40928 0.41671,0.25753 -1.8038,2.18658 -4.93445,4.28677 l -5.69208,3.81852 -14.79007,0.49735 c -8.13455,0.27355 -15.6508,0.76693 -16.70279,1.09641 l -1.91271,0.59906 2.13701,7.76734 c 1.17536,4.27204 2.12126,8.57767 2.10202,9.56807 -0.0305,1.56968 -7.69127,8.37126 -8.43476,7.48876 -0.14123,-0.16763 -0.90679,-3.23338 -1.70124,-6.81278 -0.79445,-3.57939 -2.08973,-8.72759 -2.87837,-11.44044 -1.35673,-4.66697 -1.56326,-4.90184 -3.83726,-4.36367 -5.4437,1.28832 -22.4184,6.60496 -26.12792,8.18351 l -3.98598,1.69621 8.59584,4.52526 c 10.72416,5.64572 23.15214,13.00954 23.15214,13.71808 0,0.61963 -7.25385,6.30914 -8.01366,6.28548 -0.2804,-0.009 -3.33602,-1.66831 -6.79027,-3.68796 z m -18.39277,-31.46448 c 5.18138,-1.96788 14.06374,-4.92069 19.73858,-6.5618 8.65026,-2.50158 10.2753,-3.24945 10.05437,-4.62719 -0.14493,-0.90383 -2.26694,-5.82006 -4.71556,-10.92495 -8.03944,-16.76059 -17.16256,-27.91136 -26.66487,-32.59123 -5.91379,-2.91254 -15.16752,-2.87886 -20.80272,0.0757 -5.50582,2.88674 -13.7276,10.94354 -18.51241,18.14092 -4.86885,7.32379 -13.25858,24.64573 -12.67435,26.16821 0.23301,0.60721 5.01482,2.39932 10.62626,3.98247 5.61143,1.58316 14.84566,4.67589 20.5205,6.87274 5.67484,2.19685 10.92351,3.78026 11.6637,3.51868 0.7402,-0.26157 5.58512,-2.08568 10.7665,-4.05356 z"
   id="path2567" /></svg>
