<?xml version="1.0" encoding="UTF-8" standalone="no"?>
<!-- Created with Inkscape (http://www.inkscape.org/) -->

<svg
   width="191.30832mm"
   height="189.97334mm"
   viewBox="0 0 191.30832 189.97334"
   version="1.1"
   id="svg5"
   xml:space="preserve"
   inkscape:export-filename="icon.svg"
   inkscape:export-xdpi="96"
   inkscape:export-ydpi="96"
   xmlns:inkscape="http://www.inkscape.org/namespaces/inkscape"
   xmlns:sodipodi="http://sodipodi.sourceforge.net/DTD/sodipodi-0.dtd"
   xmlns="http://www.w3.org/2000/svg"
   xmlns:svg="http://www.w3.org/2000/svg"><sodipodi:namedview
     id="namedview7"
     pagecolor="#ffffff"
     bordercolor="#000000"
     borderopacity="0.25"
     inkscape:showpageshadow="2"
     inkscape:pageopacity="0.0"
     inkscape:pagecheckerboard="0"
     inkscape:deskcolor="#d1d1d1"
     inkscape:document-units="mm"
     showgrid="false" /><defs
     id="defs2" /><g
     inkscape:label="Layer 1"
     inkscape:groupmode="layer"
     id="layer1"
     transform="translate(-9.5182373,-46.377491)"><path
       style="fill:#000000;stroke-width:0.392573"
       d="m 104.758,235.50862 c -1.01262,-2.72335 -3.21768,-17.72856 -4.16811,-28.36343 -2.121234,-23.73567 -1.735111,-42.52802 1.16556,-56.72683 0.85463,-4.18348 0.8095,-4.51115 -0.74809,-5.43014 -1.983096,-1.17006 -3.366087,-3.49725 -3.636739,-6.11967 -0.125635,-1.21729 -0.383998,-2.30943 -0.574141,-2.42693 -0.190143,-0.11752 -1.975643,-0.80848 -3.967767,-1.53545 -8.989319,-3.28046 -10.213969,-3.73965 -11.395738,-4.27285 C 60.055047,120.98781 49.092046,115.10295 34.638983,105.51464 22.597416,97.52615 14.517706,89.673254 15.506899,86.919639 c 0.275596,-0.767181 0.901999,-0.624543 6.663881,1.517391 7.680769,2.855245 15.528743,6.373508 27.953603,12.53162 22.581346,11.19196 34.468625,18.45397 44.877303,27.41584 2.539521,2.18652 4.800682,3.9755 5.024804,3.9755 0.22412,0 0.93964,-0.27519 1.59005,-0.61152 1.75394,-0.907 4.84399,-0.80141 7.07094,0.24163 1.88771,0.88417 1.88771,0.88417 5.33608,-2.03048 4.43783,-3.75096 8.85994,-7.297 10.95906,-8.78797 0.91196,-0.64774 4.01159,-2.86014 6.88804,-4.91643 20.85256,-14.90689 47.55224,-28.761 59.0282,-30.628946 2.94567,-0.479471 4.89143,-0.100208 4.89143,0.953536 0,0.6034 -7.26742,6.879936 -11.24558,9.712264 -1.32696,0.944771 -4.15349,2.974504 -6.28117,4.510516 -4.41761,3.18917 -13.1073,9.05503 -18.58999,12.54892 -20.17021,12.85364 -29.18283,17.53116 -42.73946,22.18166 -3.94568,1.35354 -4.3668,1.66658 -4.37795,3.2542 -0.0137,1.94827 -1.30157,4.28126 -3.31211,5.99981 -2.05062,1.75281 -2.08567,0.43789 0.39605,14.85666 0.2973,1.72731 1.0161,8.17532 1.59732,14.32891 0.88981,9.42051 1.05624,13.14227 1.05329,23.5544 -0.003,11.87945 -0.19678,15.07852 -1.5371,25.42394 -0.85372,6.58967 -2.74071,12.12275 -4.44547,13.0351 -1.05279,0.56344 -1.1773,0.52508 -1.55012,-0.47757 z m 2.73351,-94.48183 c 2.09936,-2.09936 1.1447,-5.4119 -1.77059,-6.14357 -2.15441,-0.54073 -4.54078,1.53351 -4.54078,3.94686 0,1.59585 1.94979,3.34425 3.72945,3.34425 1.06196,0 1.73235,-0.29795 2.58192,-1.14754 z M 84.810626,220.6487 c -2.784581,-1.07054 -5.783619,-3.86613 -7.282973,-6.78893 -1.083532,-2.11221 -1.232017,-2.79182 -1.252588,-5.73315 -0.02169,-3.11178 0.131935,-3.76679 2.278197,-9.71038 1.265834,-3.50544 2.198249,-6.64265 2.07203,-6.97158 -0.126219,-0.32892 -0.720258,-0.81358 -1.32009,-1.07702 -6.460436,-2.83734 -16.163968,-10.83048 -20.498822,-16.8856 -0.734233,-1.0256 -1.500004,-1.86472 -1.70172,-1.86472 -0.890581,0 -5.905357,2.97633 -8.190226,4.861 -4.080797,3.36603 -7.044763,7.38377 -8.953222,12.13634 -1.132843,2.82111 -1.749832,2.79863 -3.214201,-0.1171 -2.255709,-4.4914 -2.301266,-8.69965 -0.140325,-12.96406 1.394476,-2.75187 3.380548,-4.41116 9.907638,-8.27742 3.292706,-1.95041 5.986735,-3.67593 5.986735,-3.8345 0,-0.15857 -0.62136,-1.82927 -1.38081,-3.71266 -2.754155,-6.8302 -4.505264,-17.02497 -3.984476,-23.19718 0.128906,-1.52776 0.09217,-3.00738 -0.0816,-3.28806 -0.415238,-0.67061 -6.529976,-1.6477 -10.256034,-1.63884 -4.13012,0.01 -9.149785,1.2174 -12.901457,3.10371 -1.747145,0.87844 -3.268875,1.59717 -3.381627,1.59717 -0.411527,0 -0.181609,-2.99338 0.369396,-4.80923 1.465415,-4.82932 5.350839,-8.18924 10.828546,-9.36401 2.151955,-0.46151 2.735368,-0.39754 14.101649,1.54617 1.180558,0.20189 2.356822,0.28634 2.613918,0.18769 0.48468,-0.18599 1.106194,-1.56411 1.471813,-3.26354 0.116132,-0.53979 0.465596,-1.32932 0.776574,-1.75451 0.559241,-0.76459 0.58752,-0.76272 2.581245,0.17109 2.975274,1.39354 2.988411,1.4327 1.831419,5.45435 -1.379621,4.79549 -1.787856,7.99017 -1.787856,13.99115 0,6.17522 0.421835,9.30839 1.978605,14.69603 2.435105,8.42737 6.561823,15.30976 13.093406,21.8367 7.4836,7.4783 16.461004,12.40936 26.135263,14.35548 1.401997,0.28203 2.678877,0.69532 2.837504,0.91841 0.379978,0.53437 0.385165,5.21976 0.0055,5.4287 -0.161942,0.0892 -1.619362,-0.0725 -3.238736,-0.35924 -5.289366,-0.93685 -4.705259,-1.20223 -6.15191,2.79505 -0.703267,1.94324 -1.48701,4.82064 -1.741661,6.39421 -0.60895,3.763 -0.243694,9.78641 0.790625,13.03816 1.355516,4.26158 1.240793,4.42324 -2.200254,3.10032 z m -40.518348,-6.6426 c -1.098959,-0.86869 -1.992909,-1.88446 -1.986545,-2.25729 0.01101,-0.62545 3.54032,-5.63961 6.565886,-9.3274 0.702761,-0.85657 2.621296,-3.23563 4.263431,-5.28683 4.53798,-5.6684 8.846263,-10.59948 9.260741,-10.59948 0.598379,0 4.630481,3.28398 4.630481,3.77134 0,1.29444 -19.3734,25.27908 -20.418985,25.27908 -0.174286,0 -1.216038,-0.71074 -2.315009,-1.57942 z m 90.784102,0.7977 c -3.2899,-0.69057 -6.83481,-3.12433 -8.55791,-5.87542 -0.47905,-0.76483 -1.79008,-3.7755 -2.91342,-6.69035 -3.05864,-7.93662 -3.03945,-7.90047 -4.06963,-7.66646 -5.26573,1.19618 -5.40037,1.14263 -5.40037,-2.14787 0,-2.50025 0.28543,-2.90461 2.35545,-3.3368 17.90305,-3.73799 33.57234,-18.74075 38.43462,-36.79976 2.63472,-9.78563 2.59224,-18.21443 -0.14102,-27.9749 -0.54416,-1.94323 -0.99159,-3.8462 -0.99428,-4.22881 -0.005,-0.76809 3.25596,-3.03379 4.36696,-3.03379 0.51453,0 0.96199,0.85467 1.79844,3.43501 1.11347,3.43501 1.11347,3.43501 2.99152,3.3147 2.18018,-0.13968 6.74422,-1.25755 9.28916,-2.2752 3.25786,-1.30275 6.45353,-3.46692 9.68792,-6.56087 3.17842,-3.04039 3.21556,-3.06197 3.71818,-2.1608 0.30321,0.54366 0.5088,2.25424 0.51047,4.24716 0.002,2.82876 -0.16374,3.69553 -1.09082,5.69231 -1.39009,2.994 -4.29955,5.77602 -7.15984,6.84619 -1.58289,0.59224 -13.71701,3.16443 -14.92794,3.16443 -0.0879,0 -0.15973,2.16869 -0.15973,4.81931 0,5.93668 -0.51892,10.33841 -1.79213,15.20192 -1.03309,3.9462 -2.79526,8.97398 -3.36413,9.59841 -0.18687,0.20512 -0.33976,0.58582 -0.33976,0.84599 0,0.74578 5.89594,4.0086 9.696,5.36577 3.31374,1.18347 3.72038,1.23581 9.93266,1.27846 5.39625,0.0371 6.45597,0.13808 6.34877,0.60525 -0.63878,2.78351 -4.35907,6.53113 -7.73881,7.79566 -2.5995,0.9726 -6.77931,1.0814 -9.1679,0.23866 -0.89511,-0.3158 -4.17015,-1.99405 -7.2779,-3.72944 -3.10774,-1.73538 -5.90727,-3.15524 -6.22119,-3.15524 -0.31392,0 -1.0344,0.70059 -1.60105,1.55688 -3.34071,5.04815 -12.82109,13.17158 -19.08644,16.35453 -1.51671,0.77053 -2.85868,1.56442 -2.98216,1.76421 -0.31811,0.51471 0.86597,3.95291 2.56679,7.45311 2.49815,5.14109 6.20574,9.34395 10.90788,12.36498 1.13354,0.72828 2.061,1.51294 2.061,1.74367 0,1.32026 -6.4692,2.62294 -9.67939,1.9491 z m 26.4643,-6.38274 c -8.36835,-9.00102 -16.39234,-18.56364 -16.39234,-19.53562 0,-0.7839 3.24754,-3.92064 4.05915,-3.92064 0.72786,0 5.45942,4.99859 12.63788,13.3511 7.33209,8.53126 8.82023,10.36984 8.82023,10.89737 0,0.64622 -3.55901,3.62423 -4.33131,3.62423 -0.37817,0 -2.5353,-1.98739 -4.79361,-4.41644 z M 95.428708,178.58549 c -2.208267,-2.48525 -6.418334,-9.82438 -6.418334,-11.18869 0,-0.20055 -2.958305,-0.34257 -6.771886,-0.3251 -5.519333,0.0253 -7.188535,-0.10098 -9.02448,-0.68247 -3.155706,-0.99954 -5.758622,-2.87086 -7.157724,-5.14589 -1.119188,-1.81986 -1.188706,-2.16639 -1.181417,-5.8886 0.0066,-3.56811 0.128444,-4.22949 1.241686,-6.76188 0.678655,-1.54381 2.088438,-4.07091 3.132834,-5.61575 3.362939,-4.97438 3.245034,-4.23136 1.127304,-7.10426 -2.982686,-4.0463 -5.815191,-10.1866 -4.699052,-10.1866 0.121902,0 1.103144,0.3792 2.18052,0.84268 1.494189,0.64278 2.144852,1.20723 2.742845,2.37939 1.360659,2.66712 3.521622,5.84328 4.135989,6.07904 0.366599,0.14067 1.220532,-0.39033 2.245722,-1.39647 0.909797,-0.89292 1.899947,-1.62347 2.200309,-1.62347 0.969922,0 3.153602,0.93076 3.153602,1.34416 0,0.22071 -1.053601,1.466 -2.341339,2.76729 -2.341349,2.36601 -2.341349,2.36601 -1.274115,3.54372 1.669731,1.84258 4.733784,4.5146 5.176982,4.5146 0.252217,0 0.401341,-1.84231 0.401341,-4.95853 0,-4.95853 0,-4.95853 1.470866,-4.71984 2.278516,0.36974 2.454861,0.88553 2.454861,7.17979 0,6.71427 -0.243408,6.30294 6.084892,10.28215 4.546955,2.8591 5.142206,3.65768 4.132564,5.5442 -0.42886,0.80136 -0.437493,0.80068 -2.392698,-0.1901 -1.079259,-0.54691 -2.91954,-1.60671 -4.089504,-2.35514 -2.468164,-1.57887 -2.557526,-1.60086 -2.557526,-0.62956 0,1.07071 1.574962,7.26108 1.944171,7.64154 0.173471,0.17876 1.503858,-0.0421 2.956408,-0.49071 3.770172,-1.16448 3.882681,-1.13839 3.617469,0.83893 -0.254651,1.8986 -0.987078,2.58007 -3.143581,2.92491 -0.833814,0.13333 -1.610659,0.48907 -1.72634,0.79052 -0.293711,0.76539 0.805565,3.47854 2.645188,6.52867 1.318747,2.18653 1.558147,2.91849 1.558147,4.76411 0,2.4332 -0.50046,2.78883 -1.825704,1.29736 z m -8.921053,-15.62605 c 0.834145,-0.3145 0.834145,-0.3145 -0.06695,-4.13574 -0.495604,-2.10168 -1.01702,-4.82 -1.158689,-6.04071 -0.304612,-2.6245 -0.248749,-2.53331 -2.749089,-4.48803 -1.079578,-0.844 -3.148955,-2.68788 -4.598623,-4.0975 -2.635765,-2.56294 -2.635765,-2.56294 -3.478014,-1.80232 -2.358132,2.12956 -5.378501,8.04875 -5.839164,11.44333 -0.554154,4.08358 0.629223,6.47919 4.0201,8.13818 3.016404,1.47579 11.05265,2.0452 13.870442,0.98279 z m 27.267355,14.81534 c -0.74567,-1.93849 -0.50114,-3.78789 0.77503,-5.86192 0.66007,-1.07276 1.54419,-2.82338 1.96473,-3.89027 0.76459,-1.93981 0.76459,-1.93981 -0.59866,-2.50942 -0.7498,-0.31327 -1.63392,-0.5696 -1.96473,-0.5696 -1.58226,0 -3.05186,-3.61632 -1.68104,-4.13663 0.26989,-0.10241 1.72033,0.16625 3.22318,0.59709 1.51166,0.43337 2.88236,0.63346 3.06795,0.44787 0.45991,-0.4599 1.83974,-5.87474 1.84803,-7.25215 0.007,-1.11835 0.007,-1.11835 -1.46543,-0.23377 -6.62638,3.98165 -6.84919,4.08097 -7.41603,3.30576 -0.29347,-0.40133 -0.52651,-1.27007 -0.51789,-1.93053 0.0139,-1.06179 0.3207,-1.3787 2.64987,-2.73703 5.0151,-2.9247 7.57281,-4.74848 7.77417,-5.54339 0.11126,-0.43913 0.3252,-3.25878 0.47544,-6.26588 0.27318,-5.46744 0.27318,-5.46744 1.75413,-6.03009 0.81453,-0.30944 1.60949,-0.43398 1.76658,-0.27674 0.1571,0.15725 0.25398,2.30264 0.21531,4.76752 -0.0465,2.96071 0.072,4.48159 0.34903,4.48159 0.5485,0 5.31803,-4.19135 5.80503,-5.10131 0.30631,-0.57235 -0.0245,-1.09322 -1.77404,-2.79371 -1.1828,-1.14961 -2.15055,-2.22387 -2.15055,-2.38724 0,-0.41503 2.17177,-1.49494 3.0064,-1.49494 0.37946,0 1.34739,0.64199 2.15094,1.42663 0.9282,0.90636 1.68584,1.34037 2.07751,1.19007 0.60894,-0.23368 3.69072,-4.71282 4.56938,-6.64129 0.37855,-0.83083 3.83547,-3.04172 4.75598,-3.04172 0.43845,0 -0.47961,2.83114 -1.712,5.27955 -0.6465,1.28439 -2.0644,3.60845 -3.15089,5.16459 -1.97546,2.82936 -1.97546,2.82936 -0.20163,5.31993 4.48494,6.29714 6.71459,12.60452 5.83446,16.50482 -0.95505,4.23228 -3.28932,6.81167 -7.79757,8.61638 -2.06977,0.82855 -2.88557,0.90977 -9.24978,0.92096 -6.97979,0.0122 -6.97979,0.0122 -9.12248,4.32584 -1.17847,2.37247 -2.74853,5.02022 -3.48901,5.88388 -1.34633,1.57029 -1.34633,1.57029 -1.77142,0.46515 z m 21.61669,-15.05736 c 3.90923,-1.06268 6.23209,-3.77412 6.21521,-7.25494 -0.004,-0.93899 -0.42228,-2.88007 -0.92828,-4.3135 -1.0322,-2.92416 -5.05002,-9.36723 -5.84129,-9.36723 -0.28285,0 -1.39093,0.89516 -2.46239,1.98924 -1.07146,1.0941 -3.13048,2.96081 -4.57559,4.14825 -2.47527,2.03393 -2.65141,2.28824 -3.04053,4.39007 -0.22716,1.22709 -0.79307,4.04541 -1.25754,6.26293 -0.46447,2.21752 -0.74274,4.13363 -0.61838,4.25801 0.38105,0.38104 5.84511,0.81678 8.13279,0.64857 1.18754,-0.0873 3.15673,-0.42995 4.376,-0.7614 z M 10.653525,159.77784 c -0.398181,-0.64427 -1.3086267,-5.15966 -1.1063482,-5.48695 0.1762022,-0.28509 6.7622502,-1.92704 11.8852192,-2.96306 8.211302,-1.66058 17.588715,-3.26491 19.083598,-3.26491 1.314288,0 1.314288,0 1.807755,2.76128 0.297444,1.66438 0.350587,2.89038 0.133795,3.08623 -0.747315,0.67515 -15.629359,3.86624 -25.876936,5.54868 -5.525345,0.90715 -5.562202,0.90913 -5.927083,0.31873 z m 175.715005,-5.03582 c -10.34162,-1.55295 -18.06416,-2.99931 -18.51043,-3.46683 -0.3089,-0.32361 0.39831,-5.24264 0.81693,-5.68221 0.60531,-0.63561 27.06747,3.18843 30.97408,4.47607 1.3071,0.43082 1.3071,0.43082 1.0308,2.45107 -0.47187,3.45026 -0.7099,3.79115 -2.62261,3.75599 -0.92298,-0.017 -6.18292,-0.70731 -11.68877,-1.53409 z m -73.48229,-31.17669 c -3.62744,-2.07212 -7.26258,-3.76768 -8.0776,-3.76768 -0.3272,0 -2.85828,1.17619 -5.624626,2.61375 -5.029719,2.61375 -5.029719,2.61375 -6.460344,1.52256 -1.7423,-1.32891 -1.740373,-1.33135 3.29062,-4.17848 3.082718,-1.74456 3.56785,-2.14778 3.044463,-2.53049 -0.875637,-0.64028 -7.145475,-2.28029 -7.612998,-1.99134 -0.212421,0.13128 -0.689656,1.47688 -1.060517,2.9902 -0.757358,3.0905 -1.140794,3.30806 -2.946566,1.67194 -1.191537,-1.07958 -1.191537,-1.07958 -0.713013,-3.32397 0.263186,-1.23442 0.363548,-2.35935 0.223025,-2.49988 -0.140512,-0.14051 -2.251492,-0.33586 -4.691069,-0.43411 -3.445319,-0.13875 -4.809292,-0.36193 -6.109517,-0.99969 -1.844304,-0.90462 -2.713543,-1.73521 -2.274772,-2.1736 0.156854,-0.15671 3.54685,-0.30651 7.533341,-0.33289 7.248153,-0.0479 7.248153,-0.0479 9.358274,-4.31831 2.536206,-5.13261 5.546991,-8.879787 8.599405,-10.702683 1.787974,-1.067773 2.763884,-1.36742 4.966814,-1.525045 2.49379,-0.178426 2.96933,-0.08402 5.26058,1.043922 3.99989,1.969135 7.8375,6.740236 10.61498,13.197076 1.01428,2.3579 1.01428,2.3579 6.89732,2.21441 5.91349,-0.14424 8.62254,0.0793 8.62254,0.71127 0,0.18745 -0.74143,0.88608 -1.64763,1.5525 -1.53629,1.1298 -1.87452,1.21197 -5.0053,1.216 -1.84673,0.002 -4.03988,0.11703 -4.87368,0.25477 -1.516,0.25044 -1.516,0.25044 -1.24269,1.86041 0.71833,4.23152 0.74819,3.96679 -0.57291,5.07842 -0.68378,0.57537 -1.38306,1.04613 -1.55396,1.04613 -0.2778,0 -1.07057,-2.52672 -1.77034,-5.64237 -0.22803,-1.01534 -0.37888,-1.10737 -1.51313,-0.92331 -2.54424,0.41287 -6.97792,1.95246 -6.83732,2.37428 0.0792,0.23759 1.89281,1.43861 4.03024,2.66894 2.13743,1.23033 3.95721,2.44988 4.04397,2.71013 0.16199,0.48598 -1.78656,2.30839 -2.48962,2.32844 -0.21592,0.007 -1.7495,-0.76392 -3.40797,-1.7113 z m -1.12021,-10.62929 c 2.90739,-0.9973 5.3604,-1.88751 5.45114,-1.97824 0.402,-0.40201 -3.72043,-7.83663 -5.3509,-9.6501 -2.61949,-2.913511 -4.34021,-3.886725 -6.87203,-3.886725 -2.67189,0 -5.041063,1.432457 -7.45409,4.506905 -1.956273,2.49249 -4.712186,7.80183 -4.529145,8.7255 0.07874,0.39708 1.364289,0.98593 3.654543,1.67392 1.943235,0.58373 4.328122,1.43622 5.299732,1.89442 2.28324,1.07671 3.30415,0.94278 9.80075,-1.28568 z m -50.333927,-8.32803 c -1.025598,-0.57084 -1.86472,-1.24039 -1.86472,-1.48789 0,-0.2475 1.072024,-1.72358 2.382292,-3.280161 C 64.331967,97.0098 64.331967,97.0098 61.888229,94.172946 56.592791,88.025591 51.043716,84.575481 44.355145,83.27183 c -1.49703,-0.291783 -2.453583,-0.675968 -2.453583,-0.985459 0,-0.950067 3.700279,-3.690093 6.06297,-4.489594 4.103636,-1.388585 8.78584,-0.777455 12.237349,1.597239 0.900909,0.619841 3.025764,2.753626 4.721902,4.741758 4.651348,5.452049 6.091237,7.004029 6.498184,7.004029 0.20349,0 1.108441,-0.498555 2.011013,-1.107901 6.348323,-4.285917 13.809558,-7.122046 22.83997,-8.681833 3.92574,-0.678072 3.92574,-0.678072 3.92574,-5.945506 0,-8.036201 -1.300095,-11.578547 -7.207848,-19.639207 -1.411479,-1.925857 4.685173,-1.736309 8.857678,0.275398 2.59263,1.25 5.3141,4.261944 6.45789,7.147196 0.77883,1.964576 0.91343,3.17447 1.10069,9.893488 0.21334,7.655177 0.21334,7.655177 1.39106,7.77132 1.88498,0.185893 8.42501,1.587604 11.19501,2.399405 4.74191,1.389698 10.84013,4.251428 14.83145,6.960005 0.75181,0.510194 1.51467,0.927635 1.69522,0.927635 0.42908,0 2.45594,-2.239753 4.55496,-5.033419 3.16755,-4.215772 5.03402,-9.164828 5.65246,-14.987815 0.24078,-2.267118 0.58448,-4.280356 0.76377,-4.47388 0.18423,-0.198843 1.41714,0.740135 2.83503,2.159146 3.08441,3.086881 4.20688,5.694643 4.20688,9.773623 0,4.623345 -0.81253,6.199244 -7.16446,13.895254 -1.88925,2.289021 -3.43501,4.357021 -3.43501,4.595529 0,0.238507 0.79496,1.317844 1.76657,2.398512 0.97163,1.080677 1.76659,2.197137 1.76659,2.481017 0,0.28387 -1.00012,1.14171 -2.22246,1.9063 -2.22247,1.39016 -2.22247,1.39016 -5.86538,-2.09248 -8.9648,-8.570415 -18.08223,-13.011049 -29.94271,-14.583534 -6.74963,-0.894886 -16.382274,-0.0207 -22.549502,2.046329 -7.323949,2.454762 -15.289586,7.399149 -20.56638,12.765845 -1.987271,2.02113 -3.930506,3.67048 -4.318303,3.66522 -0.387797,-0.005 -1.544217,-0.47659 -2.569814,-1.04744 z M 78.590339,79.195702 c -0.621537,-0.94858 -4.018525,-8.990596 -6.313757,-14.947169 -1.433304,-3.719671 -5.25031,-14.340212 -5.25031,-14.608585 0,-0.210229 3.369304,-1.691017 4.746062,-2.085872 1.284456,-0.368372 1.616334,0.03557 3.072202,3.739537 0.509204,1.29549 1.154603,2.885417 1.434218,3.533162 1.941253,4.496961 6.696874,17.044472 8.027007,21.178908 0.468052,1.454833 0.44366,1.586822 -0.396375,2.144589 -0.492311,0.326878 -1.757915,0.898178 -2.812452,1.269545 -1.910772,0.672896 -1.91935,0.672137 -2.506595,-0.224115 z m 46.340481,-1.217856 c -1.29549,-0.495758 -2.32824,-1.04946 -2.29497,-1.230453 0.7037,-3.829692 9.51251,-29.250634 10.47733,-30.236017 0.60353,-0.616382 5.50472,1.046092 5.67589,1.925264 0.21605,1.109729 -4.03505,14.363524 -8.34545,26.018803 -1.89036,5.111483 -1.69179,4.984603 -5.5128,3.522403 z"
       id="path195" /></g></svg>
